<svg xmlns="http://www.w3.org/2000/svg" width="317" height="513" viewBox="0 0 317 513"><title>Nick Rutten</title><g fill="#ddd" fill-rule="evenodd"><path d="M194.763 222.286c-.06-3.277-.395-6.543-1.002-9.763-.89-4.41.24-8.845.61-13.26.49-5.792 1.22-11.557 0-17.37-.33-1.878-.39-3.794-.19-5.69.55-6.857.62-13.744.2-20.61-.49-8.777.16-17.55.02-26.328-.16-10.253-.38-20.5-1.03-30.735-.6-9.5-1.28-18.995-1.88-28.495-.29-4.735-.53-9.474-.71-14.216-.25-5.39-.91-10.75-1.96-16.04-1.28-6.78-1.29-13.68-1.77-20.54-.2-2.84.16-5.71-.49-8.53-.12-.85.08-1.72.56-2.42 1.2-2.26 3.11-3.97 4.63-5.98.93-1.08 2.38-1.55 3.75-1.2.9.14 1.67.38 1.64 1.52-.05 2.23 1.67 2.55 3.23 2.68 3.37.28 6.81.01 10.12.58 6.37 1.11 12.58-.52 18.86-.48 7.08.04 14.13-1.42 21.19-.6 6.44.75 12.84.22 19.26.04 4.22-.02 8.43.33 12.58 1.05 1.1.3 2.27.12 3.22-.49 2.78-1.85 6-.2 5.82 3.11-.02 1.76.24 3.51.77 5.2 1.02 4.43 1.51 8.96 1.46 13.51-.03 7.81.54 15.61 1.7 23.34.88 5.61 1.24 11.3 1.06 16.99-.21 12.54-.29 25.09-.38 37.63-.01 1.26.31 2.52.41 3.78.36 4.7.22 9.41.25 14.12.06 8.64.29 17.29 1.16 25.92.63 7.79.78 15.62.45 23.44-.08 4.09.34 8.16.52 12.24.34 7.47 1.51 14.88 1.23 22.4-.29 7.76-.37 15.55-.32 23.32.04 5.88.6 11.75 1.02 17.62.38 5.58.27 11.2-.35 16.77-.3 3.54-.34 7.1-.11 10.65.35 7.76 1.67 15.43 1.78 23.23.24 5.06.79 10.1 1.66 15.09.65 4.58 1.06 9.2 1.22 13.83-.05.52-.04 1.04.02 1.57 1.62 5.57.77 11.3 1.19 16.95.33 4.4.7 8.81 1.15 13.19.39 2.79 1.04 5.55 1.95 8.22 2.38 7.69 2.35 15.62 2.89 23.47.2 2.84.63 5.64 1.03 8.42.64 5.53.89 11.11.74 16.69.15 5.04-.17 10.08-.94 15.07-.69 3.79-.06 7.31.64 10.93.73 4.46.89 9 .48 13.51-.22 4.02-.84 8.11-.18 12.24.42 3.45.51 6.93.26 10.4-.17 4.95-.15 9.91-.42 14.87.03 2.3.28 4.6.76 6.86.44 2.89.91 5.79 1.51 8.65.3 1.41.74 2.74-.94 3.53-1.57.74-3.28 1.27-4.65-.21-.87-.94-1.27-.78-2.31-.23-2.78 1.47-5.82 1.19-8.88.98-2.91-.27-5.81-.77-8.65-1.5-4.19-.99-8.38.01-12.57-.2-2.4-.11-4.78-.49-7.1-1.14-2.21-.7-4.48-1.26-6.77-1.66-1.75-.27-3.31-.51-4.79.72-1.13.95-2.16.24-3.2-.3-4.08-2.09-8.37-.75-12.58-.68-.62.15-1.15.56-1.45 1.13-1.96 2.27-2.85 2.24-4.91-.06-1.53-1.72-2.85-1.89-4.74-.61-3.43 2.32-4.99 1.96-6.72-1.72-.39-1.09-1.28-1.91-2.39-2.23-2.74-.86-3.47-2.23-2.48-4.8.54-1.49.48-3.12-.16-4.56-2.19-6.41-5.64-12.27-7.94-18.64-2.55-7.04-5.97-13.76-8.51-20.8-2.61-7.27-6.02-14.19-8.76-21.39-2.74-7.21-6.51-14-8.8-21.41-3.08-9.99-7.86-19.34-11.07-29.29-2.27-7.03-5.48-13.74-8.08-20.64-4.09-10.86-9.03-21.36-13.63-31.98-3.84-8.87-7.13-18.07-12.24-26.41-2.75-4.48-4.8-9.41-7.01-14.21-3.19-6.9-6.74-13.69-9.2-20.85-2.64-7.67-6.64-14.6-10.12-21.81-1.37-2.85-3.12-5.51-4.71-8.25-.34-.59-.49-1.74-1.41-1.32-.45.18-.8.55-.98 1-.18.45-.17.96.03 1.4 1 2.75 1.48 5.67 1.41 8.6.06 3.56.94 7.01.83 10.55-.18 2.39.22 4.79 1.17 6.99 1.44 3.11 1.19 6.79.76 10.26-.75 5.24-.44 10.58.9 15.71.53 2.15.81 4.36.83 6.58.25 5.38.66 10.76 2.56 15.89 1.97 5.32 1.76 11.05 3.11 16.49 1.49 6.01 1.14 12.27 2.67 18.31 1.38 5.43 1.25 11.13 1.52 16.71.28 5.71 1.2 11.33 1.54 17.02.34 5.67 1.59 11.3 1.11 17-.58 6.93-.02 13.86-.43 20.8-.56 9.42-.92 18.85-.03 28.33.41 4.34-.66 8.81-1 13.22-.37 2.94-.57 5.89-.59 8.86.05 1.29-.07 2.51.96 3.52.42.49.61 1.14.53 1.78-.08 4.4.27 8.8-.15 13.21-.3 3.19-.96 6.49.8 9.57.34.57.28 1.29-.15 1.8-1.96 1.2-1.51 2.83-1.11 4.57.4 1.17-.2 2.44-1.35 2.89-1.35.73-3.02.49-4.12-.59-1.07-1.06-1.62-2.54-1.5-4.04.04-1.8-.5-2.86-2.67-3.07-2.91-.44-5.84-.66-8.79-.68-3.28.12-6.56-.26-9.73-1.13-2.93-.98-6.12-.82-8.95.44-2.57 1.2-5.58.91-8.43 1.09-6.21.39-12.42.68-18.62 1.37-5.05.4-10.13.12-15.11-.82-3.69-.59-7.31.71-10.99.02-1.14-.22-1.21.75-1.31 1.67-.05.99-.51 1.91-1.28 2.53-.77.62-1.76.89-2.74.73-2.64-.41-4.97-2.72-4.49-4.81.61-2.7.17-5.61 2.32-8.03 1.13-1.27.37-3.48.42-5.27.24-8.07-1.28-15.99-2.05-23.98-.33-4.01-.29-8.04.13-12.03.84-9.05-.25-17.94-1.76-26.81-1.36-8.26-1.67-16.66-.92-24.99 1-12.76.59-25.59-1.2-38.25-.86-6.51-1.02-13.09-.47-19.62.8-10.86.27-21.78-1.58-32.51-.91-6.07-1.44-12.18-1.58-18.31-.31-10.26-1.1-20.48-2.37-30.67-.7-5.64-.49-11.38-1.23-17.05-.73-5.66-1.71-11.29-2.34-16.96-.59-5.36-.64-10.74-.75-16.12-.12-6.04-1.11-11.98-1.81-17.96-1.16-9.12-1.65-18.32-1.46-27.51.25-9.29-.17-18.58-1.25-27.8-.88-6.5-.94-13.08-.16-19.58.86-6-.23-12.03-1.06-17.99-1.56-10.92-1.42-21.9-1.39-32.9.02-8.96 1.2-17.87.53-26.9-.46-6.21.4-12.56.95-18.82.36-2.25-.76-4.48-2.78-5.53-.58-.27-1.12-.61-1.62-1-1.1-1.07-2.53-2.05-1.74-4 .84-2.07 1.46-4.23 4.27-4.49 3.04-.27 6.1-.22 9.12.13 4.73.51 9.45-.34 14.17-.56 6.45-.31 12.88.23 19.32-.3 7.88-.66 15.82-.7 23.64-1.72 5.63-.74 10.86.69 16.26 1.3 1.87.21 3.73.55 5.61.64 2.43.1 4.64-.44 5.97-2.81.33-.54.73-1.02 1.2-1.43.76-.75 1.79-1.17 2.85-1.15 1.07.01 2.08.45 2.82 1.23 1 1.05.86 4.32-.25 5.47-2.34 2.44-2.22 2.39-.86 5.48 3.14 7.13 6.69 14.07 9.74 21.22 1.62 3.79 3.44 7.67 3.5 12.08.04 2.76 2.38 4.88 3.25 7.5 2.21 6.59 5.69 12.61 8.51 18.93 1.7 4.19 2.92 8.55 3.66 13.01.67 3.29 1.63 6.52 2.36 9.77.83 3.65 2.32 7.1 2.8 10.88.31 2.4 2.23 4.55 2.92 6.96 1.65 5.74 4.91 10.95 5.59 17 .15 1.33 1.37 2.15 1.65 3.39 1.28 5.7 4.04 10.71 6.73 15.85 1.98 3.79 4.92 7.01 6.27 11.15 2.06 6.5 4.63 12.82 7.7 18.91 2.29 4.75 4.29 9.63 5.99 14.62 1.3 3.49 3.89 6.3 4.88 9.93 1.07 3.96 3.3 7.46 4.59 11.35.92 2.78 3.46 4.46 5.12 6.76 1.35 1.88 2.82 3.63 3.5 5.89.16.51.39 1.08 1.06.9.49-.24.73-.8.57-1.32.01-1.91.01-3.81.01-5.72l-.02.12zM90.413 32.898c-1.362.068-2.01 1.116-2.627 2.068-2.513 3.875-5.28 7.572-7.56 11.615-2.993 5.31-6.748 10.18-8.91 15.95-.43 1.15-.77 2.32-.144 3.34.67 1.09 1.734.15 2.602.04 2.318-.28 3.88.75 4.07 2.8.276 3 .276 3 3.15 1.84.294-.12.585-.24.868-.39.838-.42 1.655-1.07 2.585-.18.705.69.918 1.73.535 2.63-.307 1.01-.482 2.06-.838 3.05-.167.58-.57 1.05-1.11 1.31-.54.26-1.164.27-1.714.04-1.195-.46-2.75-.65-3.2-2.28-.284-1.01-.806-1.23-1.89-.82-4.34 1.63-5.94.46-5.85-4.14.006-.45.015-.87-.49-.98-.212-.03-.43.02-.6.15-.172.13-.282.33-.307.54-.413 1.64-.293 3.37.343 4.93 1.513 3.92 3.02 7.84 4.517 11.77.26.68.34 1.56 1.18 1.72.81.14.843-.79 1.217-1.24 1.555-1.88 3.176-2.16 5.25-.98.965.51 1.485 1.58 1.28 2.65.04.99-.616 1.87-1.575 2.12-.715.18-1.426.38-2.144.55-2.23.52-2.35.89-1.35 2.81 3.01 5.79 5.92 11.63 8.92 17.43 2.11 4.07 3.63 8.49 7.03 11.82.57.64.99 1.38 1.25 2.19 1.9 4.58 4.52 8.83 7.74 12.59 3.45 4.21 6.45 8.53 8.29 13.67.91 2.55 1.29 2.52 3.36.82 1.17-1.1 2.8-1.58 4.37-1.29 1.45.37 1.06 2.17 1.35 3.31.23 1-.05 2.04-.75 2.8-.69.76-1.7 1.12-2.72.99-.97-.06-2.1-1.49-2.79-.4-.58.93 1.03 1.65 1.46 2.59.39.86.37 1.83.99 2.64 3.16 4.14 5.2 8.9 7.36 13.59.47 1.41 1.72 2.43 3.19 2.6 3.67.55 4.39 1.99 2.59 5.21-.77 1.25-.76 2.84.03 4.08 1.37 2.72 2.25 5.64 3.7 8.34 2.74 5.1 4.81 10.61 7.96 15.43 2.98 4.55 4.03 9.7 6.06 14.52.43 1.03.1 2.73 1.38 2.93 1 .15.59-1.61 1.28-2.28.23-.22.34-.54.55-.77 1.11-1.2 3.44-1.21 5.28-.09 1.59.96 1.73 2.27 1.02 3.81-.99 2.14-2.95 2.71-5.57 1.6-.35-.14-.6-.67-1.05-.24-.1.17-.12.37-.04.55 1.96 2.42 2.58 5.76 5.26 7.68l-.08-.09c-.02 3.86 2.12 6.92 3.7 10.21 2.03 4.21 5.64 7.61 6.34 12.51.29.91.8 1.73 1.48 2.39 2.42 3.18 4.85 6.36 7.08 9.66 1.76 2.6 2.51 5.73 4.29 8.38 2.23 3.14 4.14 6.49 5.68 10.01 1.2 3.22 2.84 6.26 4.88 9.02 3.46 4.53 6.43 9.42 8.86 14.57.05.42.36.76.76.86.53-.02.47-.61.66-.96.64-1.17 1.07-2.71 2.92-2.25 1.71.42 2.97 1.58 2.83 3.33-.13 1.61-1.03 3.08-3.13 2.73-2.02-.34-1.53.74-1.05 1.8.23.48.5.94.8 1.37 6.61 9.58 11.3 20.19 16.55 30.51.98 1.92 1.51 5.15 5.24 4.14 1.19-.32 1.66.97 2.22 1.89.33.5.43 1.11.29 1.69-.13.58-.5 1.078-1.01 1.378-2.01 1.41-1.35 2.81-.42 4.35.71 1.17 1.46 2.32 2.16 3.49.57.95 1.35 1.52 2.34.8 1.73-1.25 3.34-.06 4.79.34 2.47.69 2.86 4.21.89 5.92-2.53 2.19-2.56 2.21-.86 5.17.49.85.61 1.81 1.03 2.65 1.34 3.07 2.88 6.054 4.6 8.93 3.06 4.56 5.99 9.12 7.4 14.5.42 1.153 1.18 2.16 2.17 2.88.89-1.11.26-2.26-.07-3.29-2.29-7.15-3.68-14.54-5.59-21.8-1.83-7.38-4.27-14.595-7.29-21.57-1.64-3.65-3.07-7.41-4.44-11.19-2.09-5.76-3.87-11.63-5.84-17.43-1.93-5.71-4.49-11.15-6.44-16.84-1.82-5.3-2.76-10.85-4.77-16.09-1.06-2.77-2.78-5.25-3.62-8.08-.59-1.98-.88-3.49-3.63-2.8-1.66.41-3.09-1.61-3.29-3.93-.16-1.93 1.04-2.4 2.6-2.29 1.79.12 1.91-.81 1.63-2.18-.83-4.04-1.96-8.015-3.36-11.89-2.24-6.16-4.07-12.47-6.56-18.54-.56-1.61-1.79-2.9-3.37-3.54-2.71-1.11-3.65-4.23-2.4-7.06.39-.647.49-1.42.29-2.14-1.98-5.6-4.19-11.29-8.01-15.73-3.61-4-6.41-8.66-8.25-13.72-.47-1.37-.87-1.59-2.21-.98-2.58 1.15-4.66.35-5.45-1.83-.72-2.01.03-2.99 3.31-3.75 1.28-.3 1.41-.7.75-1.64-2.9-4.1-4.53-8.82-6.53-13.36-.94-2.13-1.15-4.51-2.31-6.57-.36-.65-.88-1.76-1.48-1.23-1.41 1.27-3.1.17-4.37.81-2.03 1.03-4.08.52-6.09.51-1.81-.01-2.72-1.25-2.87-3.15-.22-2.83 2.2-2.98 3.8-3.95 1.44-.88 2.13-.32 2.82 1.17 1.13 2.45 2.61-.39 4.1-.06.85.19.46-1.29.11-2.04-1.42-3.187-2.57-6.486-3.45-9.86-.54-2.39-1.53-4.65-2.92-6.66-2.28-2.96-3.78-6.35-5.6-9.56-3.57-6.29-5.65-13.2-7.57-20.13-.49-1.76-.96-2.09-2.41-.7-2.48 2.36-4.97 1.82-6.38-1.29-.42-.93-.77-1.99.14-2.97.69-.98 1.86-1.495 3.04-1.33.61.17 1.2.39 1.77.66.44.315 1.03.32 1.47.01.36-.415.39-1.02.06-1.46-.92-2.25-1.83-4.5-2.76-6.75-4.78-11.48-7.22-23.64-10.21-35.64-.55-2.15-1.39-4.215-2.51-6.13-3.62-6.36-6.03-13.25-8.52-20.08-2.68-7.34-4.68-14.93-8.12-22-.72-1.49-1.22-2.11-2.71-.81-1.34 1.18-2.94.84-4.42.16-1.35-.5-2.14-1.92-1.85-3.33.26-1.44 1.49-2.01 2.73-2.29 2.65-.6 2.66-.55 1.71-2.9-.43-1.08-.88-2.15-1.35-3.22-.29-.65-.4-1.58-1.37-1.49-.68.07-.89.82-1.25 1.33-2.08 2.93-2.74 6.62-5.04 9.42-1.04 1.14-1.71 2.58-1.9 4.12l.07-.09zM31.703 455.59c-.188 4.802-.45 9.88.688 14.885.2.854-.36 2.198.91 2.42 1.17.202.88-1.192 1.33-1.816.49-.69 1.04-1.43 2.05-1 .75.32 1.83 3.93 1.46 5.02-.31 1.29-1.61 2.1-2.92 1.8-.94-.13-2.11-.13-2.1 1.24-.07 2.43.1 4.86.52 7.26.24 1.11 1.2 1.47 1.8.5 1.89-3.08 4.87-5.29 6.56-8.52 2.55-4.89 5.81-9.33 8.68-14.02 1-1.49 2.18-2.85 3.51-4.04 3.08-3.04 5.82-6.39 8.19-9.99 2.61-3.95 2.72-8.52 2.68-13.11-.07-7.99-.83-15.98.22-23.96.1-.41.09-.84-.05-1.24-1.35-2.59-.71-5.31-.66-8.02.25-4.41.17-8.84-.26-13.23-.75-5.6-.41-11.16-.21-16.73.16-4.42.83-8.86.28-13.27-1.11-8.97-.44-17.96-.46-26.94-.01-6.45-.24-12.9-.33-19.34-.09-6.35.01-12.69-.99-19.03-1.22-7.82-.63-15.77-1.07-23.66-.32-5.67.46-11.37-.04-17.07-.36-4.09-.05-8.26-.67-12.3-1.37-8.97-2.45-17.94-3.06-26.99-.16-2.38.14-4.74-.26-7.16-1.34-7.17-1.57-14.49-.68-21.72.7-4.81.63-9.68 1.34-14.46.54-3.58-1.17-6.91-.87-10.37.65-7.48-.09-15 .87-22.49.36-3.03.37-6.09.01-9.12-.98-8.92-1.35-17.87-1.84-26.82-.19-3.48-.26-6.97-.45-10.45-.24-4.51-.89-8.99-.43-13.54.39-3.66.57-7.34.55-11.01-.02-2.47.21-5.34-1.82-7.17-6.39-5.75-11.56-12.58-16.84-19.24-6.14-7.75-14.11-12.5-22.8-16.5-1.31-.61-1.97-.32-2.33.99-.3.67-.49 1.4-.56 2.13.42 4.44-.82 8.82-.34 13.28.46 3.65.62 7.34.48 11.02-.52 9.16-1.33 18.28-1 27.47.22 6.19.13 12.37 1.02 18.56.6 3.43.92 6.9.94 10.38-.12 5.36.05 10.72-.31 16.09-.5 7.55 1.91 14.92 1.58 22.52-.22 2.16-.26 4.35-.09 6.52.91 6.19.44 12.4.63 18.59.24 7.67.28 15.37 1.65 22.91 1.92 10.57 1.03 21.27 2.15 31.86.36 3.34.1 6.79.83 9.99 1.41 5.73 2.11 11.61 2.09 17.51-.06 3.15.21 6.3.8 9.4 1.45 7.39 1.24 14.86 1.75 22.29.31 4.41-.19 8.91.47 13.25.89 5.74 1.56 11.5 2.2 17.27.63 5.73.94 11.48 1.04 17.25.05 2.74.71 5.63-.08 8.18-1.13 3.67-.41 7.37-.42 10.91.15 6.82.83 13.62 2.03 20.34.84 5.33.11 10.76.85 16.11.21 1.52-.73 3-.78 4.64-.21 6.6.12 13.23-.99 19.78-.08.42-.03.85.13 1.24 1.05 1.88 1.19 4.14.37 6.13-.19.62-.03 1.3.43 1.76.79 1.15 1.14 2.55.98 3.94-.21 4.54 1.07 8.92 1.28 13.45.23 5.05.16 10.11.44 15.42h-.06zm255.71-424.266c-.093-4.772-.46-9.535-1.103-14.264-.103-.704.03-1.67-.78-1.936-.966-.317-1.078.766-1.51 1.298-.735.9-1.415 1.853-2.213 2.692-4.44 4.664-9.043 9.17-12.593 14.618-1.083 1.66-2.404 3.22-3.554 4.84-2.902 4.087-6.085 7.953-7.986 12.778-1.8 4.613-4.11 9.01-6.885 13.11-2.8 4.07-3.11 7.964-2.85 12.354.16 2.737.67 5.512.39 8.203-.45 4.178.66 8.15 1.01 12.213.49 5.87.85 11.727.84 17.628-.02 5.686.2 11.376.27 17.064.02 1.942-.35 4 .13 5.88 1.32 5.18.73 10.47 1.19 15.692.33 3.788.53 7.594 1.02 11.364.39 2.503.92 4.982 1.6 7.425.17.725.17 1.59 1.46 1.68 2.47.175 3.64 1.882 3.78 5.004.08 1.858-.98 3.033-3.43 3.283-.98.1-1.66.09-1.74 1.213-.24 3.265-.57 6.53-.64 9.797-.03 1.327-.34 3.115.67 3.936.92.756 1.7-1.106 2.86-1.33 1.14-.222 2.11-.24 2.89.65.56.677.61 1.647.11 2.373-.49.98-1.56 1.53-2.64 1.37-.42-.06-.82-.2-1.17-.41-.54-.31-1.03-.9-1.64-.25-.44.46-.05.99.13 1.47 1.49 4.19 1.94 8.69 1.3 13.1-.36 1.56-.24 3.19.36 4.69.63 1.57.85 3.27.65 4.96-.15 5.26.32 10.53 1.4 15.69.49 3.19.69 6.42.59 9.66.05 4.08.39 8.15 1.02 12.19.95 5.95 1.18 11.99.7 18-.53 5.13-.65 10.3-.36 15.46.28 5.05.2 10.12-.25 15.17-.27 3.79-.32 7.59-.44 11.39-.15 4.41-.28 8.83-.39 13.25-.08 3.43-1.09 6.74-.58 10.29.79 5.81 1.04 11.69.76 17.56-.16 3.98-.92 8.02-.04 12.01 1.39 6.32.71 12.71.79 19.07-.11 2.74.16 5.48.81 8.15 1.54 5.09 1.39 10.44 2.9 15.51.15.61.19 1.26.1 1.89-.5 4.11.19 8.23-.14 12.34-.18 2.23.47 3.94 3.21 4.1 1.1.06 2.07.85 3.24 1.08 1.43.29 2.36 1.68 2.11 3.12-.04.7-.37 1.35-.9 1.8-.53.45-1.23.67-1.93.61-.95.13-1.91-.04-2.75-.49-1.1-.72-1.5-.07-1.59.99.02.73.12 1.45.3 2.16.66 4.98 4.31 7.74 7.76 10.67.89.76 1.21.71 1.61-.58.95-3 2.71-3.54 5.27-1.81.62.36 1.34.53 2.06.49 2.3.14 4.41 3.73 3.55 5.9-.32 1.05-1.36 1.7-2.44 1.53-1.73-.05-3.25-1.12-3.87-2.73-.07-.26-.24-.48-.48-.6s-.52-.13-.77-.02c-.46.31-.63.9-.41 1.41.3.91.88 1.71 1.66 2.28 3.64 2.83 6.88 5.78 9 10.18 1.85 3.59 4.76 6.53 8.33 8.44 1.02.6 1.78 1.57 2.12 2.71.94 3.26 3.41 5.52 5.14 8.25.67 1.06.98 2.76 2.74 2.6.63-.06.69-3.74.07-4.82-.29-.44-.65-.84-1.05-1.17-1.51-1.38-1.5-2.69.15-3.95.81-.53 1.36-1.39 1.49-2.35.19-3.79.73-7.58-.13-11.36-.15-.95-.63-1.81-1.35-2.44-.72-.64-1.27-1.44-1.59-2.34-.52-1.29-.52-2.35 1.2-2.5 1.64-.15 2.18-1.3 2.24-2.61.16-3.69.67-7.46.17-11.07-1.33-9.71-.48-19.41-.51-29.12-.02-4.01.11-8.02-.03-12.03-.31-8.56-1.93-17.01-2.28-25.57-.12-2.95.18-5.96-.77-8.82-3.9-11.69-4.37-23.84-4.93-35.97-.01-2.96-.18-5.92-.51-8.86-1.42-9.1-2.03-18.28-3.11-27.42-.2-1.67.12-3.39-2.53-3.46-1.3-.04-1.94-1.54-2.12-2.85-.11-.43-.04-.88.19-1.25s.6-.64 1.03-.73c3.07-.11 2.49-2.05 2.34-4-.86-8.64-1.07-17.32-.61-25.98.62-6.74.67-13.52.16-20.26-.84-8.73-1.11-17.51-.78-26.27.32-7.08.21-14.16-.34-21.22-1.15-10.61-1.55-21.28-1.2-31.93.18-5.05-.07-10.1-.74-15.1-.63-5.16-.39-10.3-.82-15.44-.53-6.38-.43-12.83-.38-19.25.02-2.98-.69-5.87-.67-8.83.09-12.26.27-24.52.18-36.78-.04-4.85.29-9.74-.68-14.55-1.59-7.23-2.25-14.63-1.96-22.02l.1.08zM200.588 132.22c-.022 2.114.175 4.218.122 6.34-.15 5.98-.486 11.99-.073 17.943.433 6.235.948 12.42-.07 18.623-.19 1.77-.19 3.554 0 5.324.113 2.323 1.017 4.53.91 6.798-.327 7.05-.66 14.11-2.2 21.034-.166.5-.166 1.042 0 1.543 2.746 6.6 1.9 13.756 3.072 20.608.67 3.123.58 6.36-.24 9.445-.98 3.02.36 5.663 1.22 8.128 1.23 3.532 3.05 6.865 3.96 10.568.19 1.35.48 2.686.88 3.992 2.94 7.033 4.51 14.463 6.35 21.814.97 3.864 1.47 7.803 3.55 11.396 2.17 3.738 3.14 7.998 4.23 12.2 1.11 4.394 2.57 8.695 4.35 12.866 2.39 5.496 4.49 11.112 6.31 16.826 1.35 4.316 2.73 8.63 4.05 12.957 1.63 4.992 3.59 9.87 5.88 14.6.95 2.083.54 4.706 2.94 6.253.76.775 1.05 1.903.75 2.95-.3.692-.3 1.475-.01 2.17 3.04 5.005 3.22 10.86 4.88 16.273.98 3.23.86 6.68 2.17 9.82.23.55.21 1.45 1.09 1.2.77-.22.52-1.03.45-1.64-.04-.31-.2-.61-.22-.92-.29-3.87-1.14-7.67-.92-11.62.23-4.17.81-8.4-.44-12.56-.67-2.77-.9-5.64-.68-8.49.12-6.3 1.5-12.6.2-18.91-.65-3.54-.69-7.18-.11-10.74 1.02-7.45.82-14.92 1.04-22.39.1-3.37.6-6.71.53-10.07-.18-8.42-.61-16.84.01-25.26.38-5.24.76-10.44-.07-15.74-.65-3.42-1.06-6.88-1.24-10.37-.12-5.37-.04-10.76-1.4-16.05-.62-2.9-.9-5.86-.84-8.83-.18-7.39-.28-14.79-1.34-22.13-1.02-6.98-2.64-13.97-2.17-21.03.32-5.88.13-11.78-.57-17.64-.4-3.79-1.83-7.37-1.77-11.25.04-2.42.25-4.84.14-7.28-.38-8.42-2.1-16.76-1.74-25.23.14-1.89.14-3.78.01-5.68-.62-5.99-.86-12-.95-18.03-.01-1.05-.1-2.1-.26-3.15-1.06-5.82-1.77-11.7-2.13-17.61-.2-3.88-.05-7.84-.91-11.66-.4-1.75-.64-3.25.57-4.75 1.12-1.26 1.02-3.2-.22-4.35-4.92-5.19-8.74-11.45-14.93-15.43-2.69-1.87-4.97-4.27-6.7-7.06-2.44-3.56-4.9-7.2-8.75-9.46-3.65-2.14-6.92-4.87-9.68-8.08-1.36-1.33-2.86-2.52-4.46-3.54-.95-.71-1.97-.66-1.9.82.3 6.32.36 12.69 1.23 18.93.48 3.51 1.39 7.04 1.98 10.56.69 4.14.64 8.41.99 12.61.37 4.51-.06 9.09.47 13.57.95 8.09 1.28 16.21 1.85 24.31.8 11.48 1.02 23 .73 34.52l.07-.04zm58.932 319.42c-.11-.475-.296-1.3-.5-2.12-.744-2.99-2.253-5.64-3.558-8.41-4.5-9.545-9.786-18.67-14.617-28.04-1.074-2.08-1.607-4.38-2.685-6.43-4.607-8.762-9.412-17.423-13.94-26.225-2.614-5.082-6.152-9.648-8.44-14.863-4.42-10.075-9.89-19.614-14.722-29.478-3.62-7.392-8.334-14.2-12.36-21.398-5.457-9.757-11.217-19.362-16.984-28.948-2.236-3.715-3.757-7.902-6.415-11.257-5.45-6.87-8.74-14.93-13.08-22.4-3.54-6.09-5.69-12.94-9.71-18.82-.82-1.11-1.49-2.31-2.01-3.59-2.64-7.34-5.86-14.45-9.64-21.28-3.5-6.11-6.07-12.75-9.12-19.12-1.55-3.23-3.57-6.25-4.72-9.67-.96-2.34-2.05-4.62-3.25-6.85-3.13-6.8-7.4-13.02-10.09-20.05-1.1-2.75-2.61-5.32-4.48-7.61-3.8-4.54-7.12-9.47-9.89-14.7-2.33-4.61-6.04-8.39-8.13-13.16-.09-.31-.36-.54-.68-.59-.32-.05-.65.09-.83.36-.19.27-.2.62-.03.9 1.64 2.74 1.14 5.97 2.19 8.87 1.38 3.52 2.39 7.17 3 10.9.78 5.95 1.94 11.84 2.51 17.81.44 4.68 2.73 8.85 3.72 13.41 1.02 5.04 2.58 9.96 4.67 14.65 4.4 9.54 7.26 19.53 9.93 29.63.71 2.72 1.01 5.69 2.61 8.06 1.55 2.37 2.96 4.83 4.22 7.36 3.96 7.63 8.51 14.93 12.06 22.81 3.44 7.66 6.47 15.5 10.24 23.02 1.39 2.56 2.42 5.3 3.06 8.14.57 3.02 2.97 5.3 4.16 8.15 1.93 4.56 4.12 8.99 6.58 13.28 1.99 3.64 3.8 7.37 5.41 11.19 2.03 4.7 4.56 9.15 6.43 13.94 2.01 5.17 3.87 10.45 6.59 15.34.72 1.3-.14 3.14.98 4.24 2.22 2.2 2.86 5.11 3.94 7.84 1.86 4.72 4.45 9.17 6 13.95 1.59 4.91 3.39 9.74 5.06 14.61 2.52 7.36 5.27 14.64 8.25 21.84 1.17 2.85 1.56 5.9 2.76 8.66 2.31 5.3 5.19 10.32 7.13 15.81 1.46 4.16 3.51 8.11 5.17 12.2 2.45 6.04 4.61 12.19 7.09 18.22 1.6 3.89 3.55 7.62 5.03 11.53.7 1.86.81 3.3 3.14 1.52.69-.52 2.54-1.09 2.71.18.27 2.08.73 5.05-.63 6.24-2.04 1.79-1.36 3.25-.54 4.67 1.06 1.69 1.94 3.49 2.64 5.35.38 1.18 1.03 1.08 1.8.17 4.47-5.32 8.92-10.67 13.49-15.89 1.23-1.43 2.34-2.97 3.32-4.59 3.17-5.11 6.48-10.09 11.72-13.5 1.75-1.14 3.52-2.82 3.35-5.77l.08-.08zM106.4 274.428c.138-3.987-1.178-7.675-2.227-11.44-.497-1.784-.582-3.177-2.904-1.564-1.39.965-2.87.242-3.97-.936-1.05-1.13-.98-2.24-.34-3.73 1.03-2.39 2.68-2.475 4.64-1.853 1.61.512 2.18.073 2.01-1.572-.56-5.45-1.2-10.894-1.6-16.355-.3-3.9-1.01-7.76-2.12-11.508-.44-1.46 1.3-3.29-.17-3.98-.98-.46-2.7.74-4.11 1.11-.9.24-1.82.55-2.39-.72-1.7-3.723-.33-6.49 3.6-6.492 2.35-.002 2.19-1.05 1.69-2.522-.9-2.673-1.35-5.46-2.29-8.14-2.13-6.056-3.51-12.405-6.23-18.224-2.44-5.226-3.93-10.72-5.57-16.172-1.04-3.453-.83-3.516-3.96-1.97-2.29 1.133-3.47.634-4.27-1.808-.73-2.236.4-3.95 3.12-4.286 1.69-.207 2.39-.86 1.79-2.45-.45-1.52-.77-3.072-.97-4.643-.41-1.953-.7-3.61-3.53-3.32-1.58.19-3.02-.894-3.27-2.458s.77-3.048 2.33-3.362c3.26-1.14 3.27-1.15 2.67-4.65-1.29-7.51-3.81-14.72-5.21-22.22-2.24-11.955-6.52-23.4-9.54-35.168-.11-.41-.23-.813-.37-1.21-.03-.153-.12-.29-.25-.376-.13-.09-.29-.12-.44-.09-.32.08-.53.38-.5.71.07.94.18 1.89.28 2.83.44 4.08 1.42 8.12 1.06 12.27-.31 3.58.27 7.14.24 10.72-.09 1.16.39 2.3 1.3 3.04 1.54 1.3 2.15 3.34.95 4.83-1.97 2.43-1.57 5.11-1.06 7.52 1.66 7.89.11 15.74.09 23.6-.01 3.96.2 8-.97 11.9-.06.31-.03.63.1.93 1.54 4.05 1.88 8.46.99 12.71-.19.51-.01 1.09.44 1.41.61.34.87-.27 1.26-.6 1.88-1.62 2.33-1.48 3.15.88.1.3.17.61.24.92.9 3.65-.34 5.04-4.01 4.11-.44-.22-.95-.18-1.35.1-.4.28-.61.75-.56 1.23-.36 3.03-.56 6.07-.76 9.12-.07 1.05.37 2.18 1.54 1.85 1.8-.51 2.11.94 2.96 1.74.93.88 1.98 1.64 1.24 3.2-.71 1.51-1.69 2.36-3.48 1.94-1.33-.31-2.52.05-2.4 1.62.35 4.71.84 9.41 1.32 14.11.13 1.28.64 1.85 1.74.62.18-.26.42-.47.7-.62 2.02-.7 3.31-1.3.88-3.39-1.45-1.25-1.12-3.95-.09-5.61 1.17-1.9 2.71-.64 3.98-.42 2.2.37 2.3 2.45 2.69 4.15.34 1.46.13 2.63-1.6 3.23-1.63.57-2.28 1.67-1.1 3.4.4.51.56 1.18.43 1.82-.14.64-.55 1.19-1.13 1.49-1.13.73-2.38 1.52-3.77.39-.55-.45-1.06-1.29-1.87-.74-.75.5-.33 1.36-.22 2.06.62 3.74 1 7.52 1.15 11.31.06 3.1 1.38 5.95 1.09 9.02.04.3.21.57.48.73.48.28.78-.1 1-.47.33-.54.58-1.13.94-1.65 1.36-1.96 2.45-1.98 3.87-.07.84 1.09 1.36 2.41 1.5 3.79 0 .54.36 1.03.89 1.18.54.05 1.05-.24 1.28-.73 1.26-1.55 1.12-2.69-.81-4.55-1.06-1.02-1.5-2.06-.73-3.35.57-1.2 1.9-1.83 3.19-1.51 1.05.13 2.06.52 2.93 1.14.58.48.99 1.67 1.95.55.83-.97 1.92-2.41.71-3.32-1.85-1.41-2.66-4.1-5.63-4.24-.87-.06-1.66-.52-2.14-1.26-.48-.73-.58-1.64-.28-2.46.77-1.97 1.19-4.04 1.99-5.99.59-1.45 1.76-2.14 2.95-1.03 1.2 1.12 2.01.81 3.3.3 2.4-.95 3.11-.27 4.13 2.27.42 1.29.5 2.68.21 4.01-.37 2.75 2.1 6.13-1.58 8.26-.24.35-.31.79-.19 1.2.6 2.29-.53 4.17-1.63 5.91-.88 1.44-1.48 3.03-1.77 4.69-.58 2.88-1.23 3.46-4.01 2.82-.52-.23-1.12-.23-1.64 0-.53.23-.93.67-1.11 1.21-1.45 2.69-3.49 3.27-6.19 1.91-1.55-.78-2.51-.3-2.88 1.21-.32 1.23-.43 2.5-.33 3.77.15 2.11.2 4.22.13 6.33-.08 3.77.09 7.52-.09 11.3-.23 4.88.67 9.81 1.07 14.73.37 4.61.04 9.25.88 13.85.68 3.72.38 7.53.77 11.29.39 3.84-.39 7.69-.2 11.61.36 7.33-.04 14.69-.14 22.04-.17 1.04-.2 2.09-.09 3.13 1 3.56-.21 7.36 1.28 10.86.23.73.1 1.52-.35 2.14-.48.84-.59 1.83-.32 2.75.17 1.46.14 2.95-.1 4.4-.45 3.83-.66 7.69-.64 11.55.11 4.41.73 8.81 1.12 13.22.05.6-.28 1.41.43 1.69.81.32 1.04-.55 1.28-1.06.89-1.86 2.46-1.5 3.8-.99 1.79.67 4.05.96 4.63 3.28.28 1.09-.35 2.21-1.42 2.54-.99.36-2.28.75-3.07.15-1.26-.96-2.83-.72-4.08-1.5-1.82-1.14-1.95-.04-1.83 1.39.58 6.62.14 13.26.25 19.89.08 4.78 1.17 9.65-.08 14.47-.05.95.12 1.9.49 2.78.35.77.49 1.63.41 2.47-.79 2.7.67 3.54 2.96 4.03 1.7.36 3.45 1.11 3.15 3.28-.3 2.08.87 3.09 2.21 4.19 4.81 3.93 9.71 7.77 13.62 12.69 3.33 4.18 6.59 8.38 11.22 11.34 2.67 1.7 2.95 1.93 4.82-.47.35-.53.76-1.01 1.23-1.43.64-.49 1.35-1.29 2.24-.77.87.5.22 1.33.1 2-.11.63-.06 1.27.13 1.88.6 1.62.32 3.44-.74 4.8-.74.93-.48 1.83.16 2.89 1.19 1.99 3.13 3.1 4.72 4.62 1.07 1.02 1.64.73 1.8-.66.51-4.51.87-9.02-.7-13.42-.48-1.4-.73-2.86-.74-4.34-.08-3.18.87-6.3.94-9.33.14-6.41 1-12.82.33-19.29-.62-5.87.33-11.8.37-17.71.05-6.84.02-13.7.31-20.54.34-7.38-.04-14.77-1.12-22.08-1.08-7.11-1.31-14.27-2.02-21.4-.84-8.49-1.38-17.02-3.18-25.36-.89-4.15-1.49-8.32-1.99-12.5-.27-2.95-.86-5.87-1.76-8.69-1.29-3.91-2.06-7.98-2.28-12.1 0-1.05-.08-2.11-.23-3.15-1.98-8.02-2.43-16.34-1.33-24.52l.15.08zM28.56 12.772c-.52.098-1.047.148-1.576.15-3.602-.297-7.128.76-10.73.58-.74-.037-1.838-.145-2.11.953-.233.932.69 1.142 1.212 1.63 1.708 1.57 3.68 2.824 5.827 3.706 2.314 1 4.493 2.33 6.82 3.35 2.15.94 3.483 2.95 5.322 4.34 3.64 2.75 7.768 5.15 9.818 9.67.82 1.73 1.99 3.26 3.44 4.49 2.718 2.2 5.07 4.81 6.972 7.74 2.58 4.31 6.734 6.26 10.76 8.53.185.1.404.11.595.02 1.594-.97 1.665-2.86 2.493-4.3.615-1.06-.296-1.82-1.127-2.29-1.528-.86-2.338-1.82-1.896-3.8.324-1.45-.695-.91-1.57-.59-1.72.63-2.908-.29-3.42-1.85-.515-1.57.276-2.56 1.83-3.13 2.728-1 6.72.83 7.923 3.82.36.9.508 1.95 1.706 1.99.99.04 1.4-.84 1.79-1.58C76.1 39.77 80.54 34 84.66 28c2.79-4.06 5.6-8.22 7.17-13 .71-2.17.44-2.714-1.8-2.85-2.948-.202-5.88-.588-8.78-1.155-3.31-.59-6.683-.732-10.03-.42-7.79.65-15.57 1.375-23.36 1.96-6.43.485-12.88-.49-19.3.297v-.06zm180.71-.166c-1.38 0-2.228-.04-3.07.01-.825.05-1.877-.09-2.21.864-.268.96.13 1.982.976 2.508 2.134 1.415 3.676 3.505 5.7 4.964 4.815 3.394 9.06 7.53 12.576 12.257.563.76 1.285 1.42 1.826 2.16 2.258 3.11 5.315 5.35 8.144 7.84 4.114 3.62 7.358 8.05 11.28 11.86 1.49 1.44 2.235 1.14 3.08-.42.3-.56.715-1.06.97-1.64 4.272-9.46 9.947-18.21 16.833-25.97 1.46-1.68 2.45-3.69 3.96-5.35.908-1 .658-2.2-1.026-1.87-1.42.27-2.22.04-2.66-1.38-.61-2 .03-3.53 1.78-4.06 2.45-.74 4.14-.19 4.39 2.01.36 3.19 1.38 1.25 2.21.45.63-.71 1.21-1.47 1.75-2.25.94-1.21.46-1.93-.81-2.35-2.16-.6-4.42-.68-6.6-.23-3.26.4-6.55.48-9.81.23-4.63-.27-9.24-.9-13.92-.44-3.55.4-7.14.44-10.69.11-1.47-.19-2.96-.16-4.42.08-5.08 1.04-10.29 1.34-15.45.87-1.78-.2-3.59-.23-4.84-.31l.03.05zm80.75 481.797c-2.918.027-4.834-1.835-3.666-3.77 1.012-1.675 2.154-3.482 4.663-3.168.79.1 1.852.403 2.223-.636.324-.91-.537-1.52-1.042-2.18-1.616-2.1-3.93-3.49-5.495-5.69-3.983-5.6-8.773-10.52-13.407-15.57-.51-.54-1.092-1.01-1.728-1.39-.997-.62-1.61-.11-1.882.87-.563 2.01.6 4.1 2.608 4.69 1.973.49 3.187 1.29 3.328 3.48.164.98.967 1.72 1.957 1.82 1.13.33 2.04 1.19 2.43 2.31.25.41.32.91.18 1.38-.14.46-.48.84-.92 1.05-1 .54-2.18.6-3.23.17-1.05-.44-1.84-1.32-2.16-2.4-.83-2.83-2.41-3.77-5.24-3.1-4.06.95-4.96.3-5.6-3.94-.13-1.8-.44-3.58-.91-5.31-.38-1.05-.9-1.37-1.83-.48-1.59 1.54-3.23 3.03-4.84 4.55-.62.58-1.45 1.25-.67 2.1.75.82 1.24-.24 1.82-.58 2.44-1.41 5.06-1.32 4.9 2.29-.11 2.4.72 3.15 2.86 3.46 1.72.25 2.05 1.58 1.65 3.15-.39 1.5-1.49 1.83-2.86 2.01-.63.16-1.3.05-1.85-.3-.55-.36-.92-.92-1.03-1.57-.51-2.8-1.85-3.36-4.46-2.59-1.39.4-2.87-.22-3.56-1.48-.84-1.42-1.49-.76-2 .24-2.52 4.92-6.2 8.94-9.96 12.89-1.68 1.78-1.57 2.5.84 3.43 1.37.53 2.18 1.45 1.97 2.84-.1 1.23-1.09 2.19-2.32 2.26-1.28.17-2.56-.29-3.43-1.24-.51-.6-.54-1.84-1.64-1.66-1.1.17-1.16 1.39-1.61 2.19-.53.91-1.01 1.85-1.44 2.82-.52 1.18-.29 2.04 1.16 2.31 1.96.36 3.93.75 5.89 1.18.73.2 1.48-.21 1.73-.92 1.38-2.36 4.59-2.59 5.86-.23.94 1.76 2 2.04 3.78 1.88 6.41-.68 12.9.08 18.99 2.24 3.26 1.21 6.75 1.68 10.22 1.35 5.14-.54 10.34-.22 15.39.95 2.15.56 4.4.55 6.55-.03 2.72-.77 3.37-1.67 1.62-3.7-2.73-3.15-4.48-6.9-6.87-10.25-1.87-2.61-1.77-2.54-4.05-.22-.86.88-1.01 2.81-3.01 2.39l.07.09zm-221.033-34.95c.248-.015.496-.013.744.006 2.12.22 3.63 1.52 3.39 3.05-.29 1.91-1.98 1.95-3.4 2.22-.51.08-1.04.03-1.54-.15-1.08-.49-2.36-.11-3.02.89-1.7 1.93-3.42 2.14-5.12.37-1.4-1.46-1.93-.62-3.02.23-3.39 2.64-4.31 6.87-6.69 10.17-1.14 1.59-2.66 2.97-3.42 4.89-.92 2.46-2.44 4.65-4.43 6.37-1.77 1.5-3.18 3.39-4.13 5.52-.97 2.17-.56 3.1 1.78 2.86 3.1-.32 6.1.22 9.14.36 1.7.08 3.26.61 4.95.69 6.78.31 13.47-.74 20.19-1.12 4.57-.26 9.25-.1 13.76-1.75 2.23-.7 4.61-.82 6.89-.34 1.79.32 2.56-.13 1.77-1.97-.51-1.18-.75-2.57.36-3.16 1.87-.99 3.65-1.68 2.43-4.32.13-.4.36-.76.66-1.03 1.04-1.44.62-2.42-.77-3.41-3.34-2.4-6.27-5.33-8.68-8.67-1.36-1.87-3.03-3.51-4.51-5.3-.54-.65-.98-1.05-1.84-.53-.81.48-1.36 1.3-1.51 2.23-.15.93.12 1.88.73 2.6.57.45.97 1.09 1.11 1.81.23 1.96-.91 3.17-3.21 3.34-.84.05-1.66-.26-2.27-.84-.61-.59-.94-1.4-.92-2.25-.03-1.89.58-3.9-.06-5.66-.74-2.03-.78-3.65.75-5.22.35-.27.54-.69.52-1.12-.02-.44-.25-.83-.61-1.07-2.02-1.84-4.35-3.33-6.17-5.41-.38-.37-.88-.59-1.41-.64-3.87-.47-8.44 3.69-7.53 7.37.25 1.02.26 1.78 1.4.57.9-1.17 2.33-1.8 3.79-1.67l-.07.06zm35.585 35.922c.87.004 1.777-.088 2.103-1.01.267-.753-.478-1.035-1.01-1.357-.854-.628-1.41-1.582-1.533-2.635-.233-.91-.465-1.826-.763-2.717-.04-.266-.21-.497-.45-.618-.24-.12-.53-.118-.77.008-.25.118-.41.36-.42.63-.02.27.12.527.35.67 1.43 1.307 1.12 2.72.47 4.287-.86 2.07-.32 2.744 2 2.742h.01zm6.637-.294c.32.09.66-.02.88-.27.21-.25.27-.6.14-.91-.07-.88-.78-1.57-1.66-1.63-.44-.05-.87.1-1.18.4-.31.31-.47.74-.42 1.17.14 1.27 1.4 1 2.22 1.26l.01-.01zM70.09 396.9c-.092-.03-.194-.012-.27.05-.075.062-.113.158-.1.255.024.093.082.175.162.228.194.155.41.13.45-.09-.04-.167-.123-.32-.242-.444zM57.798 194.152l-.115-.244c-.074.153-.135.312-.182.475.02.087.06.17.11.238l.19-.47v.01zm65.387 231.2c-.016.085-.01.172.02.253.195.182.348.127.38-.137-.012-.088-.07-.164-.15-.2-.09.007-.175.035-.25.083v.01zM19.337 247.698l-.09-.25c-.085.01-.166.043-.233.096-.014.086.018.174.085.23.08-.005.16-.03.23-.076zm274.05-159.03c.024-.082.027-.17.01-.253-.194-.13-.283-.038-.216.227.07.022.14.03.21.027v-.01zm-229.25 79.166l-.143-.218c-.07.047-.13.11-.175.182-.07.242.03.35.24.27.04-.07.06-.15.07-.234zm4.88 182.854c.22.02.267-.075.125-.274-.066.005-.13.022-.19.05l.065.224zm112.746 40.28l.216-.107-.22-.11v.22zm19.476 43.447l.07-.21c-.06-.032-.12-.05-.18-.056-.05.06-.08.12-.09.2l.2.06z"/><path d="M45.943 227.748c.983.258 1.05 1.596 2.333 1.795 2.994.463 3.685 2.372 1.838 4.588-.58.7-1.19 1.64-2.325 1.1-1.09-.51-2.41-.79-2.3-2.54 0-1.25-.09-2.5-.28-3.74-.09-.25-.05-.53.09-.76.14-.23.37-.38.63-.43v-.01zm-1.453 236.53c-1.708-.236-3.014-1.64-3.126-3.36.278-1.57 1.52-2.792 3.095-3.043 1.2-.002 3.41 2.4 3.37 3.67-.04 1.287-1.9 2.812-3.35 2.733h.01zm-17.953-267.61c.34-1.618.3-3.427 2.4-3.72.96-.132 3.738 2.976 3.644 3.933-.11 1.19-2.16 3.27-3.1 3.15-1.68-.23-2.93-1.66-2.94-3.36zm23.07 234.072c.053 1.268-1.935 2.8-3.674 2.777-1.625-.022-2.117-1.237-2.353-2.524-.215-1.17 1.43-3.072 2.5-3.052 2.004.04 3.463 1.2 3.528 2.8zm4.75-20.93c1.62.185 4.107-2.9 4.694 1.08.23 1.536-1.49 3.404-2.75 3.336-1.83-.213-3.21-1.792-3.17-3.643-.03-.886-.03-.886 1.23-.772zm2.758 36.095c-1.543.018-2.65-.558-2.773-2.254-.12-1.69 1.173-2.47 3.962-2.45 1.3.02 2.242.48 2.28 1.97.045 1.68-1.316 2.75-3.47 2.74zm-2.95 5.975c-.024 1.52-1.16 2.79-2.667 2.982-1.614.113-3.154-1.073-3.135-2.415.292-1.464 1.422-2.616 2.88-2.937 1.41.005 2.626.992 2.922 2.37zM26.72 131.098c-.732.04-1.444-.25-1.937-.795-.492-.543-.713-1.28-.6-2.005.058-2.587 2.21-1.438 3.356-1.732 1.51-.39 2.35.908 2.27 2.297-.1 1.69-1.45 2.173-3.09 2.235zm5.895-57.33c.147 1.725-.828 2.484-2.378 2.654-.79.108-1.585-.146-2.167-.69-.58-.545-.886-1.323-.83-2.118.07-2.304 2.22-1.392 3.33-1.876 1.14-.5 2.06.622 2.05 2.03h-.005zm16.645 39.317c2.17.114 3.662 1.42 3.415 2.678-.305 1.56-1.682 1.862-2.904 1.863-1.42 0-2.81-.69-2.82-2.317-.03-.62.21-1.22.66-1.65.45-.43 1.06-.64 1.67-.59h-.01zm4.69 249.47c1.35-.157 2.103.326 2.202 1.658.087 1.17-2.01 3.18-3.362 3.045-1.437-.142-1.725-1.27-1.796-2.504-.136-2.343 1.796-1.802 2.956-2.198zm-7.34-17.467c-.457 1.262-1.102 2.27-2.682 2.048-1.4-.195-2.77-.41-2.597-2.38.17-1.86 1.9-2.112 2.97-2.236 1.23-.142 2.07 1.175 2.31 2.568zm-1.816-50.458c-1.516.255-2.943-.087-3.04-1.79-.084-1.486.996-1.792 2.576-1.846 2.128-.072 2.667 1.106 2.772 2.58.132 1.85-1.416.912-2.308 1.056zM266.74 52.74c.394-2.383.87-4.63-1.11-6.762-1.345-1.45-.215-3.108 1.083-4.086 1.324-1.027 3.213-.87 4.35.36 1.584 1.89 3.705 3.25 4.264 6.242.55 2.942-.364 4.89-1.796 6.988-1.18 1.733-2.93 1.62-4.54.99-1.56-.526-2.51-2.108-2.24-3.733h-.01zm4.885 73.708c-1.98.023-2.953-.838-3.08-2.784-.026-.413.188-.846.137-1.25-.264-2.102-1.54-2.897-3.585-2.283-2.226.67-3.843.13-4.47-1.5-.4-1.05-.537-2.25.385-2.93 1.233-.91 2.664-2.08 4.33-1.2 1.3.7 2.852.73 4.184.1 1.194-.49 2.567-.24 3.513.64.94.88 1.29 2.23.88 3.46-.43 1.49-.71 2.55.33 4.04 1.22 1.74-.33 3.71-2.63 3.73v-.01zm-17.398-23.423c-.012-.842.108-1.68.355-2.486.78-1.02.733-2.44-.11-3.39-.512-.64-.75-1.45-.66-2.26.092-.81.503-1.55 1.142-2.05 1.86-1.39 3.573-3.54 6.4-2.21 1.39.65 1.806 3.05.732 4.4-.432.46-.913.87-1.433 1.23-1.44 1.16-1.988 2.22-.34 3.85 1.262 1.25.805 3.65-.532 4.8-1.46 1.25-2.9.9-4.32-.12-.68-.36-1.14-1.04-1.22-1.8l-.01.02zm36.093 254.243c1.953.016 4.132 2.34 3.32 3.952-1.51 2.996.514 5.198 1.353 7.57.763 2.158.84 3.67-.812 4.495-.82.39-1.76.416-2.6.068-.84-.347-1.49-1.034-1.79-1.89-.55-1.368-1.54-2.59-1.91-3.892-.85-3.07.06-6.24.36-9.35.09-.94 1.22-1 2.1-.94l-.01-.01zm-12.492-66.2c.257-.813.073-1.702-.486-2.346-1.45-1.452-1.01-2.873.328-4.07 1.056-.943 3.53-.495 4.387 1.035.194.53.596.96 1.114 1.185.52.227 1.11.232 1.63.015 1.83-.39 3.79 1.192 4.24 3.138.23 1.004-1.59 3.1-3.13 3.3-.95.123-1.99.03-2.59.833-1.15 1.53-2.5 1.277-3.92.647-1.31-.584-1.59-1.354-1.55-3.738h-.01zM253.383 72.743c.08-1.28.418-2.25 2.197-2.25 3.354 0 3.4-.064 4.904 3.518.228.55.524.75.76.12.427-1.14 1.41-1.43 2.375-1.85.82-.36 1.34-2.01 2.52-.57 1.28 1.57 1.63 4.24.64 5.27-1.09 1.13-2.56 1.91-3.9.74-1.63-1.42-2.17-1.49-2.64.85-.36 1.79-1.82 1.97-2.84.35-1.15-1.81-3.99-2.35-3.8-5.12-.04-.35-.11-.7-.23-1.04l.01-.01zm19.69 350.016c0-.88.03-1.62-.01-2.35-.036-.74-.26-1.58.633-1.9.64-.18 1.32.1 1.66.67 1.313 2.46 4.708 3.24 5.117 6.42.054.31.235.59.5.77.268.18.596.24.91.17.726-.12 1.468-.12 2.193.01 1.137.38 2.77.46 2.88 2.02.037 1.4-.713 2.7-1.942 3.38-1.18.65-2.434-.04-3.35-1.06-.25-.2-.457-.45-.61-.72-.726-2.48-2.193-2.74-4.507-1.99-1.664.54-3.45-1.21-3.58-3.09-.015-.8.02-1.6.107-2.39v.05zm-2.83-22.19c.594-.04 1.18-.14 1.75-.31 2.21-.93 2.817 1.09 3.53 2.19.82 1.27-.15 2.47-1.49 2.91-1.707.56-1.786 1.46-1.05 2.87.962 1.84-.213 3.04-1.55 3.94-1.034.65-2.394.43-3.17-.51-1.107-1.12-1.81-2.35-.637-3.91.533-.71 1.486-1.66.15-2.34-1.827-.93-1.64-2.52-1.11-3.77.283-.67.845-1.17 1.535-1.38.69-.21 1.44-.11 2.05.29v.02zm-3.823-245.09c.603-1.6.28-2.36-.902-2.97-1.664-.87-1.787-2.45-1.467-4.11.32-1.65 1.8-1.69 2.96-1.9 1.83-.33 2.55 1 3.16 2.46.74 1.74 1.58 3.44 2.41 5.15.7 1.42 1.05 2.98-.11 4.13-1.06 1.1-2.7 1.41-4.1.77-1.34-.65-2.12-2.08-1.94-3.55l-.01.02zm32.333 296.66c-1.487-.57-3.13-.57-4.618-.01-1.454.61-3.13-.07-3.745-1.52-.625-1.78.25-2.91 1.835-3.85 2.027-1.2 4-2.36 6.46-2.21 1.897.11 3.8 2.73 3.524 4.84-.28 1.66-1.78 2.85-3.46 2.74v.01zm-28.6-354.45c.03-2.85 1.034-3.57 3.93-4.21 2.14-.48 2.786.57 3.32 2.24.444 1.39.4 2.89 1.223 4.21.946 1.51.372 2.73-1.092 3.72-1.45.98-2.98 1.53-4.274.16-1.75-1.86-2.1-4.48-3.108-6.12zm7.157-20.83c2.94-.02 4.176 1.46 3.67 4.42-.115 1.04-.337 2.07-.662 3.07-.53 1.56-2.09 2.53-3.726 2.32-1.937-.13-2.66-1.38-3.01-3.09-.435-2.12.492-3.92 1.252-5.75.45-1.09 1.552-.9 2.477-.99v.02zm-8.88 102.38c1.012-.14 1.984.44 2.36 1.39.353.64.766 1.24 1.233 1.81 1.81 2.54 1.66 3.47-1.05 4.92-.845.4-1.57 1.02-2.105 1.8-.617.92-1.51 1.7-2.612.9-.92-.68-.625-1.69-.023-2.54.883-1.25 1.313-2.39-.316-3.46-1.132-.75-1.14-1.95-.785-3.13.468-1.56 1.875-1.47 3.3-1.71l-.002.02zm35.26 289.86c.168.73-.068 1.5-.62 2.02-.97.69-1.313 1.98-.817 3.07.332.94-.133 1.98-1.06 2.37-1.153.63-2.587.4-3.485-.56-.8-.72-1.678-1.51-1.03-2.67.815-1.47.712-3.02.836-4.59-.04-.81.295-1.59.905-2.12.61-.53 1.42-.75 2.22-.6 2.3.13 3.06.89 3.05 3.06v.02zm-34.102-133.16c-1.897-.1-6.323-4.25-6.367-6.15 0-.53.16-1.04.46-1.46 1.24-1.7 5.62-1.18 6.32.83.2.91.77 1.7 1.58 2.16 1.1.55 2.12 1.41 1.43 2.7-.57 1.33-1.96 2.11-3.4 1.9l-.02.02zm32.478 81.32c1.096-.08 2.132.5 2.644 1.48.548.96.277 2.19-.628 2.84-1.147 1.09-1.615 1.92-.657 3.45.896 1.43-.105 2.67-1.236 3.51-1.62 1.19-2.47-.57-3.49-1.23-1.31-.85-.79-2.19.02-2.96 1-.97.74-1.7.33-2.77-.97-2.47.45-4.4 3-4.34l.01.02zm-32.352-140.5c.408-2.18 1.795-4.04 3.76-5.05 1.08-.65 2.54-.87 3.346.52.762 1.08.602 2.56-.375 3.46-.77.71-1.725 1.24-1.82 2.44-.115 1.47-.655 2.46-2.38 2.02-.8-.1-1.525-.51-2.004-1.16-.48-.65-.67-1.46-.52-2.26v.02zM258.444 126c2.457-.065 3.724 1.47 3.868 4.684-.116 1.57-1.21 2.898-2.732 3.31-1.81.15-4.73-2.74-4.76-4.708-.025-1.657 1.714-3.236 3.62-3.285h.004zm20.97 184.487c-1.7-.056-3.62-2.318-3.506-4.133.055-.897 3.236-4.06 4.087-4.064 1.14 0 3.413 1.83 3.42 2.76.02 3.1-1.752 5.516-4 5.44v-.003zm-16.32-155.285c-.35 1.118-.55 2.28-.594 3.45.017 1.73-.63 3.386-2.465 3.34-1.46-.04-3.452-.07-3.95-2.337-.393-1.725.515-3.483 2.15-4.16.974-.616 1.99-1.16 3.045-1.627 1.35-.41 2.066-.237 1.814 1.325v.01zm26.776 262.34c.17 3.015-1.68 4.815-3.96 4.41-.86-.043-1.637-.528-2.053-1.283-.416-.76-.41-1.68.013-2.43.637-1.44 1.436-2.8 2.184-4.19.34-.63.618-1.52 1.53-1.29.865.11 1.58.72 1.824 1.56.245 1.23.363 2.49.462 3.21zm4.705-18.9c-1.66-.242-3.09-1.29-3.82-2.8-.98-1.744-1.36-3.495-.354-5.36.74-1.357 1.92-1.167 2.48-.2 1.07 1.84 2.61 3.25 3.81 4.94 1.28 1.805.38 3.394-2.1 3.427l-.01-.01zm-13.578-249.41c.018 2.147-1.627 3.594-3.99 3.51-1.59-.227-2.83-1.488-3.032-3.08.05-2.136 2.21-4.498 4.113-4.493 1.397 0 2.893 2.09 2.91 4.06zm-17.33 85.184c.45-1.74-.18-3.516 1.17-4.95.678-.828 1.76-1.21 2.808-.99 1.192.24 1.152 1.34 1.188 2.28-.124 1.047-.037 2.108.256 3.12.63 1.165.25 2.624-.88 3.32-1.11.9-1.91-.08-2.87-.35-.56-.076-1.06-.38-1.38-.84-.32-.46-.43-1.034-.31-1.58v-.01zM285.13 406.8c-1.19-.186-2.648-.422-3.05-1.742-.495-1.63-1.662-3.28-.627-5.12.44-.786 1.19-1.09 1.807-.44 1.052 1.11 2.465 1.543 3.663 2.35 1.075.566 1.573 1.834 1.17 2.98-.48 1.454-1.516 1.903-2.964 1.973zm7.345 31.34c2.722.03 3.59.7 3.61 2.773.09.908-.223 1.81-.855 2.468-.63.66-1.52 1.01-2.43.96-2.255.01-3.798-1.35-3.774-3.34.022-1.96 1.13-2.88 3.45-2.86zM277.27 57.373c.034-2.046 1.444-3.192 3.873-3.145 1.493.02 3.253 1.55 3.307 2.85.074 1.8-2 3.57-4.15 3.54-.853.03-1.676-.313-2.258-.938-.58-.624-.863-1.47-.772-2.32v.013zm-2.988 293.99c.288.052.57.14.836.26 1.598.942 2.808 4.163 2.385 5.946-.05.58-.335 1.11-.786 1.48-.452.37-1.033.54-1.614.48-1.293-.09-2.562-.47-2.825-2-.33-1.92.465-3.7.952-5.5.2-.4.603-.67 1.052-.69v.01zm10.34-319.79c-.01.904-.4 1.762-1.072 2.366-.673.6-1.568.89-2.468.8-1.732-.21-3.06-1.64-3.14-3.38.164-1.88 2.085-3.31 4.384-3.25 1.218.03 2.382 1.78 2.297 3.45zm.458 292.676c-2.178.03-3.654-1.2-3.64-3.03-.034-.86.293-1.7.902-2.31.61-.61 1.445-.94 2.305-.9 1.738-.08 3.704 1.95 3.812 3.93.08 1.56-.94 2.25-3.38 2.29v.01zM265.524 61.43c1.846.124 3.288 1.646 3.312 3.496-.093 1.32-1.895 2.74-3.42 2.7-1.86-.11-3.34-1.6-3.44-3.46.068-1.7 1.472-2.78 3.548-2.74v.004zm18.986 181.55c-2.034.147-2.812-.744-2.874-2.4-.105-2.802.758-4.68 2.11-4.593 1.897.4 3.352 1.926 3.66 3.84-.035 1.63-1.275 2.98-2.897 3.153zm-8.114 70.765c.844-.002 1.654.334 2.25.932.595.598.926 1.41.92 2.254-.235 1.49-1.452 2.64-2.954 2.77-2.19-.08-3.882-1.5-3.862-3.22.025-2.04 1.058-2.81 3.646-2.72v-.01zm12.326-39.08c-2.126-.068-3.48-1.136-3.515-2.774-.03-1.37 1.613-3.28 2.85-3.32 1.66-.04 3.906 1.93 3.848 3.38-.03.8-.39 1.55-.994 2.06-.6.52-1.39.76-2.18.66zm-4.072-114.02c-.122 3.502-1.166 4.384-4.118 3.575-.477-.068-.907-.324-1.193-.71-.29-.388-.41-.874-.34-1.35.35-1.888 1.47-3.546 3.09-4.584 1.23-.93 2.63.79 2.55 3.06v.01zm-15.578 129.11c-.22 1.297-.49 2.665-2.605 2.48-2.86-.253-4.002-1.008-3.968-2.916.11-1.86 1.71-3.28 3.57-3.16 1.81.16 3.16 1.77 3 3.59zm13.738 52.177c2.52-.044 4.014 1.034 4 2.758-.01 1.622-1.384 3.267-2.77 3.322-1.864-.03-3.403-1.467-3.56-3.325.048-1.543.34-3.056 2.33-2.756v.01zm-4.368-9.493c-.018-.87.208-1.72.652-2.46.666-.97 1.412-1.36 2.125-.08.4.73.6 1.56 1.64 1.71.53 0 1.04.25 1.38.67.33.42.46.97.36 1.49.04 1.08-.62 2.08-1.64 2.46-1.24.4-2.59.02-3.42-.97-.69-.79-1.08-1.8-1.11-2.84l.01.01zm3.708-111.91c2.242-.03 3.65.97 3.63 2.57-.212 1.7-1.606 3.01-3.318 3.12-.837.11-1.682-.15-2.317-.71-.635-.56-.997-1.37-.993-2.21-.037-1.71 1.1-2.76 3-2.79l-.002.01zm9.452 159.53c.098-1.45.607-2.61 2.632-2.5 2.27.12 3.894 1.39 3.896 3.27.002 1.44-1.578 2.66-3.345 2.57-.893.06-1.768-.28-2.383-.93-.616-.65-.91-1.55-.8-2.43v.02zm-18.787-129.35c-.222 1.77-1.504 2.24-2.875 2.42-.735.12-1.487-.08-2.073-.54-.585-.46-.95-1.15-1.007-1.89-.067-1.54 2.34-4.47 3.868-4.38 3.326.18.38 3.34 2.087 4.38zm-5.612 12.67c1.846.04 3.55 1.39 3.583 2.85.034 1.4-1.95 3.13-3.502 3.05-1.322-.07-3.16-1.87-3.176-3.11.02-.79.364-1.54.95-2.07.583-.53 1.36-.8 2.145-.74v.01zM280.87 110.1c1.635-.015 3.015 1.214 3.187 2.84.118 1.607-1.616 3.244-3.53 3.333-1.282.06-3.048-1.767-3-3.102.24-1.69 1.64-2.97 3.344-3.07zm3.812 142.49c1.447.01 3.59 1.74 3.628 2.93.035 1.1-1.716 2.83-2.933 2.892-1.525.08-3.628-1.57-3.657-2.87-.02-.79.285-1.555.846-2.114.56-.558 1.325-.862 2.116-.84v.002zm-6.577 125.82c.798-.062 1.585.218 2.165.768.58.55.9 1.322.882 2.122-.035 1.745-1.435 3.155-3.18 3.202-.836-.107-1.595-.544-2.108-1.213-.513-.67-.737-1.52-.622-2.36.084-1.86 1.137-2.57 2.863-2.53zm-17.76-238.5c.78-.087 1.562.148 2.164.65.6.504.97 1.232 1.02 2.015-.28 1.687-1.59 3.016-3.27 3.31-1.19-.01-3.1-2-3.07-3.2.17-1.602 1.54-2.807 3.15-2.78v.005zm21.44-9.43c-.055-.75.248-1.48.816-1.97.57-.49 1.34-.683 2.07-.52 1.85.14 3.36 1.586 3.26 3.133-.09 1.386-2.1 2.864-3.71 2.726-.78-.1-1.49-.52-1.95-1.16-.46-.64-.64-1.45-.48-2.22h.01zm2.31 52.61c-.002 1.525-1.14 2.81-2.655 2.994-.843.086-1.684-.178-2.327-.73s-1.03-1.344-1.073-2.19c.04-1.745 1.393-3.178 3.133-3.32.907-.114 2.854 2.05 2.92 3.246h.002zm-7.158 255.966c-1.862-.045-2.918-.994-2.88-2.59.042-1.75 1.41-3.24 2.99-2.944 1.46.275 3.32.324 3.292 2.62-.04.85-.43 1.644-1.08 2.196-.65.552-1.49.81-2.34.717zm6.855-369.38c-1.568.024-3.494-1.39-3.52-2.583.01-1.78 1.442-3.228 3.223-3.257.8-.032 1.58.257 2.167.804.587.546.93 1.305.953 2.106-.168 1.506-1.325 2.71-2.823 2.94v-.01zm5.004 242.77c-3.437-.29-5.345-2.373-4.678-5.01.172-.676.617-1.37 1.245-.694 1.2 1.293 2.835 1.252 4.283 1.79 1.27.472 1.328 1.42.943 2.575-.32.963-.52 1.944-1.8 1.34zm-13.288-67.885c-1.514-.01-2.638-1.37-2.564-3.33.065-1.7 1.118-2.32 2.778-2.23 1.71.09 2.892.8 3.113 2.53.21 1.64-1.444 3.06-3.327 3.04v-.01zM268.775 370c1.368.106 2.42 1.255 2.403 2.627.144 1.418-2.06 3.186-3.783 2.972-1.772-.22-2.282-1.77-2.58-3.16-.267-1.26 1.548-2.43 3.96-2.44zm8.655 1.655c2.24-.025 2.974.617 2.987 2.61.014 2.047-.453 2.367-3.622 2.477-1.623.057-2.604-.662-2.712-2.337-.116-1.793 1.04-2.723 3.347-2.75zm-7.894-69.543c2.593.154 3.743 1.08 3.645 2.925-.09 1.75-1.2 2.387-2.74 2.334-1.8-.06-3.54-1.58-3.47-2.87.09-1.7.93-2.48 2.57-2.38zm21.107 33.8c2.265-.015 3.855 1.017 3.923 2.53.048 1.08-1.51 2.358-2.86 2.34-2.076-.133-3.67-1.89-3.602-3.97.12-2.29 1.78-.387 2.54-.9zm-23.61 44.55c2.286-.036 3.48.99 3.447 2.933-.03 1.672-1.153 2.11-2.515 2.17-2.166.094-3.65-1.09-3.763-2.907-.1-1.64.57-2.16 2.83-2.2v.004zm3.094-242.315c1.26-.024 2.766 1.705 2.604 3.187-.14 1.288-.68 2.488-2.15 2.71-1.41.215-3.53-2.11-3.55-3.733-.03-2.26 1.77-1.88 3.11-2.16h-.01zM283.66 203.7c1.603.155 2.88 1.408 3.067 3.008.032 1.015-2.198 2.655-3.725 2.625-1.786-.035-2.148-1.504-2.4-2.814-.28-1.45 1.205-2.71 3.058-2.82zm5.53 179.518c.696-.052 1.383.182 1.902.648.52.467.825 1.125.848 1.822.098 1.252-1.868 3.15-3.07 3.092-1.657-.018-3.008-1.334-3.07-2.99.235-1.64 1.746-2.788 3.39-2.572zm-15.24-20.493c-.346 1.49-.612 2.855-2.482 2.86-2.078.007-3.73-1.162-3.66-2.66.07-1.526 1.852-2.955 3.613-2.87 1.77.087 2.08 1.483 2.53 2.67zm9.85-238.72c-.146 1.094-1.06 1.923-2.164 1.96-1.478.112-3.556-1.98-3.526-3.448.043-2.066 1.507-2.218 3.075-2.194 1.788.027 2.72 1.223 2.616 3.682zM267.146 343.38c2.17.056 3.378 1.03 3.123 2.668-.21 1.32-.54 2.796-2.27 2.97-1.16.115-3.75-2.13-3.51-3.065.34-1.357.53-3.11 2.65-2.572zm13.514-78.588c-1.057-.436-3.073.402-3.153-1.925-.055-1.636 2.057-3.262 4.295-3.403 1.552-.098 1.623 1.084 1.656 2.125.063 1.94-.997 3.17-2.798 3.2zm8.07-71.106c-1.106-.57-3.155.19-3.262-2.026-.07-1.492 2.514-3.54 4.284-3.357 1.898.194 1.533 2.004 1.817 3.16.29 1.212-1.16 2.238-2.84 2.223zm-11.958 193.61c-.035 1.228-1.67 3.145-2.498 3.074-1.067-.09-3.506-2.316-3.515-3.205-.02-1.49 1.48-2.533 3.43-2.423 1.72.098 2.22 1.32 2.58 2.554zm19.758 73.84c-1.84.022-3.288-1.1-3.34-2.594-.047-1.373 1.685-3.107 3.12-2.832 1.168.223 2.424.775 2.594 2.246.163 1.42-1.21 3.164-2.374 3.18zM267.872 174.86c-.737.05-1.463-.203-2.01-.7-.547-.497-.868-1.195-.888-1.934-.03-1.506.543-2.704 2.222-2.914 1.434-.18 3.515 1.302 3.584 2.457-.053 1.61-1.3 2.93-2.908 3.09zm20.002 262.706c-.37 1.254-.95 2.286-2.53 2.228-1.62-.06-3.165-1.406-3.022-2.62.135-1.147 2.334-2.744 3.607-2.57 1.71.235 1.5 1.762 1.94 2.962zm-8.532-238.756c.593-.045 1.178.16 1.613.565.436.405.682.973.68 1.568.05 1.126-1.897 3.016-2.897 2.968-.925-.04-2.947-2.18-2.902-3.06.054-1.07 2.04-2.22 3.506-2.03v-.01zm-6.432 21.074c-.67.067-1.332-.177-1.798-.662-.466-.486-.683-1.158-.59-1.824.047-1.59 1.16-2.158 2.48-2.343 1.24-.173 3.514 1.476 3.27 2.396-.275 1.59-1.765 2.68-3.36 2.44h-.002zm-6.054-13.718c-.388 1.293-.962 2.044-2.284 1.964-1.61-.096-3.268-1.41-3.133-2.56.13-1.126 1.91-2.602 3.01-2.3 1.48.407 1.75 1.886 2.4 2.896zm-18.706 125.8c-1.284 1.993-.468 4.883-3.46 5.638-.884.223-1.704 1.04-2.53.025-.68-.84-1.296-1.87-.63-2.88 1.26-1.9 1.103-3.95 1.105-6.06.002-2.08.565-2.19 2.497-1.29 2.084.97 1.72 3.21 3.02 4.55l-.002.01zM237.377 217.29c-1.103.053-2.038-.114-2.452-1.168-.394-1.026-.03-2.188.878-2.806 1.393-.906 2.668-1.98 3.798-3.2 1.02-1.318 2.25-.38 3.11.723.86 1.1 1.07 2.08-.5 2.72-.71.23-1.25.81-1.46 1.53-.48 1.79-1.99 1.96-3.36 2.19l-.01.01zm-5.865-103.818c1.37.152 2.57.78 2.536 2.666-.03 1.615-1.863 3.34-3.337 2.952-1.39-.367-2.9-.898-2.9-2.78 0-1.544 1.8-2.994 3.71-2.838zm-3.548-50.88c2.506.023 3.575.988 3.492 3.1-.086 1.53-1.314 2.748-2.844 2.822-1.755-.178-3.08-1.672-3.046-3.436.104-1.457.495-2.788 2.398-2.486zm4.262 29.638c2.497.13 3.503.985 3.23 2.922-.007.69-.308 1.347-.826 1.804-.52.456-1.207.67-1.894.59-1.39-.076-3.225-1.827-3.148-2.94.114-1.365 1.27-2.406 2.638-2.377zm-20.06 39.853c.738.01 1.442.318 1.95.853.51.534.782 1.252.756 1.99-.033 1.42-1.12 2.596-2.533 2.74-.88.15-3.14-2.152-3.16-3.03.05-.734.39-1.418.95-1.898.55-.48 1.28-.716 2.02-.655h.01zm37.38 185.634c.05 1.052-1.595 2.787-2.703 2.542-1.292-.29-3.236-.01-3.268-2.15-.104-.69.09-1.39.534-1.93.44-.54 1.09-.86 1.79-.89 1.5-.14 3.59 1.27 3.64 2.41zM236.16 149.22c1.83-.05 2.82.778 2.817 2.485.083.69-.138 1.384-.607 1.898-.468.515-1.137.8-1.833.782-.794.098-1.593-.145-2.198-.67-.61-.523-.96-1.28-.98-2.08.02-1.77 1.19-2.283 2.79-2.415zm5.385 44.79c-.072.91-3.334 3.698-4.196 3.485-1.27-.31-1.53-1.33-1.48-2.472.08-1.964 1.8-3.637 3.46-3.395 1.16.255 2.04 1.205 2.21 2.383zm-6.61 96.82c-.516 1.278-1.82 2.057-3.19 1.906-1.46-.033-2.627-1.23-2.62-2.692-.09-.92 2.377-2.465 3.72-2.246 1.53.25 1.784 1.61 2.09 3.03v.002zm7.755-16.65c1.745.003 3.413 1.293 3.34 2.5-.096 1.53-1.336 2.107-2.536 2.334-1.133.213-3.12-1.667-3.055-2.667.09-1.516.92-2.286 2.25-2.168zm-27.386-78.71c1.57-.126 2.68.567 2.608 2.265-.07 1.64-1.273 2.227-2.82 2.305-1.78.09-2.132-.998-2.08-2.407.053-1.39.41-2.552 2.292-2.162zm23.556-18.638c1.01.11 1.984.42 2.164 1.706.132.943-2.144 3.36-3.004 3.04-1.115-.415-2.45-.855-2.73-2.276-.214-1.094 1.737-2.422 3.57-2.47zm4.113 60.914c-.15 1.152-.142 2.447-1.72 2.62-1.14.123-2.755-1.928-2.717-3.458.033-1.318 1.144-1.772 2.115-2.018 1.1-.276 2.34 1.38 2.33 2.856zm6.054 103.474c.537-.068 1.078.088 1.496.432.418.345.676.846.712 1.386.21 1.007-1.298 2.802-2.262 2.586-1.294-.193-2.335-1.164-2.617-2.442-.213-1.83 1.626-1.507 2.67-1.962zM209.1 98.465c.037.587-.184 1.16-.606 1.57-.42.41-1 .614-1.586.56-.638.055-1.27-.15-1.754-.57-.484-.42-.776-1.018-.812-1.657-.128-1.757 1.413-1.714 2.628-1.918 1.634-.274 1.87.88 2.13 2.015zm-1.108-46.205c-1.447.12-2.207-.81-2.36-2.21-.145-.573-.034-1.18.303-1.666.336-.485.867-.8 1.454-.866 1.24-.187 2.49 1.167 2.49 2.674 0 1.143-.3 2.11-1.89 2.068zm19.004 195.822c.09.46-.037.934-.342 1.29-.306.353-.757.548-1.224.528-1.387.08-2.522-.515-2.57-2.058-.032-1.018.17-2.23 1.608-2.224 1.734.007 1.385 2.09 2.528 2.464zM224.84 104.9c.878.335 1.83.426 2.757.262.316-.07.646-.005.914.176.27.182.45.465.51.784.01.978-.99 1.04-1.64.948-1.02-.202-2.03-.49-3-.86-.43-.023-.78-.375-.79-.81.12-.74.77-.487 1.27-.5zm8.93 371.462c.066.862-.255 1.71-.876 2.31-.62.603-1.478.897-2.338.803-1.738-.022-3.172-1.365-3.306-3.098.01-1.37 2.098-3.14 3.66-3.1.81-.033 1.59.29 2.142.883.55.593.812 1.398.718 2.202zm4.712-16.818c.965.54 2.89.17 2.915 2.313.02 1.555-2.574 3.752-4.182 3.595-1.098-.108-2.69-2.007-2.666-3.18.02-1.33 2.05-2.843 3.93-2.728zm-40.478-61.25c-1.927.37-3.265-.048-3.554-1.896-.22-1.405 2.21-3.41 3.958-3.448 1.504-.033 2.706 1.46 2.608 4.208-.08 2.215-2.247.517-3.012 1.135zm50.113 46.75c1.492.178 2.732 1.235 3.144 2.68.16 1.505-1.41 3.093-3.27 3.18-1.42.233-2.77-.677-3.1-2.08-.27-1.093 2.05-3.703 3.24-3.78h-.01zM130.27 232.137c1.645-.287 1.942.453 1.462 1.79-.42 1.17-.528 2.502-1.73 3.266-1.17.744-3.367.494-4.023-.595-.81-1.337-.14-2.4.87-3.32 1.05-.96 1.62-1.148 3.42-1.143v.002zm89.058 221.057c-.213.598-.19 1.255.064 1.837.532 1.2-.153 1.66-1.09 2.14-.92.48-1.732.69-2.574-.07-.772-.6-.984-1.68-.498-2.54.435-1.06 1.015-2.05 1.724-2.96.508-.59.75-1.73 1.84-1.2.744.46 1.04 1.4.7 2.2-.043.21-.11.41-.166.61v-.01zm10.184-9.435c1.63 0 3.104 1.29 2.973 2.66-.157 1.63-1.307 2.28-2.804 2.39-1.55.11-3.43-1.4-3.27-2.71.23-1.82 1.64-2.23 3.11-2.35v.01zm-52.744-115.25c.204.95-.112 1.95-.83 2.62-.626.59-1.514.82-2.35.61-1.028-.29-1.173-1.1-1.13-2.01-.044-.53-.027-1.06.052-1.58.393-1.32.797-2.95 2.475-2.85 1.866.11 1.6 1.89 1.783 3.19v.02zm49.698 87.78c-1.44-.22-3.018-.26-3.69-1.84-.263-.63 3.308-3.09 4.386-2.98 2.115.22 1.703 2.29 1.886 3.41.258 1.57-1.56 1.13-2.582 1.4v.01zm-9.168 23.53c-.462 1.11-1.64 1.75-2.826 1.54-1.23-.16-2.968-.45-2.744-2.29.047-1.33 1.09-2.39 2.408-2.47 1.44-.06 3.3 1.73 3.162 3.21v.01zM94.482 310.56c-.05 1.016-.278 2.253-1.64 2.535-1.315.27-2.127 1.388-3.353 1.69-.59.074-1.11.393-1.44.877-.34.485-.45 1.09-.3 1.66.19 1.8-.6 2.85-2.43 2.95-1.84-.038-3.45-1.252-3.98-3.01-.1-.245-.08-.52.05-.75.13-.226.36-.38.62-.41.61-.107 1.19-.392 1.65-.82.74-.66 1.51-1.33.78-2.37-.61-.86-1.29-.16-1.93.13-.48.223-.97.41-1.47.56-1.26.35-2.6.64-3.28-.89-.66-1.29-.23-2.86.99-3.64 1.64-1.24 3.43-1.8 5.21-.4.44.463 1.05.726 1.69.728.64.002 1.25-.258 1.69-.72 1.12-.99 2.56-.96 3.85-1.21 1.93-.37 3.2.92 3.24 3.11l.03-.02zm12.636-.073c-.23 1.83-.427 3.19-.568 4.55-.274 2.66-.972 3.52-3.58 3.87-.95.12-1.79.17-1.626 1.33.31 2.21-.274 3.066-2.78 3.35-2.918.33-3.936.03-3.865-2.738-.11-1.22.79-2.3 2.01-2.41 1.11-.21 2-.61 2.12-1.94.33-3.54 2.97-5.7 5.03-8.19.5-.61 1.11-1.46 2.08-1.12.81.27.77 1.19.95 1.89.1.45.17.92.21 1.39l.01.01zm-29.81 61.21c-1.825-.015-4.35-2.5-4.395-4.328-.04-1.53 1.026-2.25 2.49-1.66.383.15.683.53 1.07.65.873.29 1.877.92 2.677.23.956-.82-.608-1.45-.485-2.14.48-2.69 1.46-5.27.895-8.11-.12-.6.98-1.03 1.782-.82 1.558.4 2.705 1.58 3.89 2.51 1.395 1.09 1.2 2.73.186 4.24-.254.57-.393 1.19-.41 1.83-.26 1.49-.854 2.51-2.653 2.41-.834-.05-1.924-.22-1.65 1.47.412 2.53-.803 3.71-3.397 3.69v.02zm19.938 83.165c.93.193 1.9.055 2.74-.39 3.532-1.655 5.506-.322 5.14 3.454.005.947.178 1.887.51 2.774.378 1.248.043 2.602-.872 3.53-1.09 1.093-2.407.335-3.584.07-.928-.278-1.713-.904-2.19-1.747-1.07-1.694-1.942-3.37-4.475-3.11-.484-.048-.925-.295-1.22-.68-.295-.388-.417-.88-.336-1.358.3-1.493 1.53-2.622 3.05-2.805.42.02.83.11 1.23.265v-.003zm-4.56-41.964c-.122.76-.28 1.8-.46 2.84-.26 1.52-1.044 2.593-2.69 2.56-1.338-.03-2.794.018-3.475-1.6-.62-1.49-.18-2.515 1-3.592 1.77-1.607 1.73-2.13-.31-3.604-1.55-1.132-2.48-2.924-2.53-4.845-.14-1.08.36-2.148 1.27-2.736.97-.56 2.29-1.14 2.48.9.1 1.1.35 2.06 1.64 2.39 2.23.56 2.98 2.03 2.73 4.27.01 1.15.13 2.3.37 3.42h-.02zm.922-157.864c-1.39 1.96-.81 4.73-1.48 7.21-.42 1.557-2.197 1.69-3.768 1.26-2.225-.61-3.232-1.664-2.75-3.444.4-1.303.514-2.676.34-4.027-.14-1.34.266-2.677 1.123-3.715.857-1.038 2.096-1.687 3.437-1.803 1.61-.07 3.146 1.955 3.098 4.517v.002zM81.69 443.41c-1.413.118-2.764-.604-3.45-1.845-.607-1.21-1.84-1.675-2.77-2.498-1.645-1.455-1.673-2.393.187-3.313 1.18-.665 2.174-1.62 2.885-2.774 1.004-1.582 3.09-2.067 4.69-1.09.72.374 1.21 1.076 1.312 1.88.103.804-.194 1.607-.796 2.15-.656.745-.706 1.846-.12 2.648.74 1.092.404 2.194.39 3.327-.02 1.487-.82 1.774-2.327 1.515zm4.78-63.418c1.177.09 2.347.173 2.748 1.61.12.404.285.794.49 1.163 1.25 2.36 1.907 2.52 4.36 1.092 2.6-1.515 5.17-.66 5.35 1.793.082 1.14-.197 2.132-1.458 2.452-2.112.535-3.225 4.228-6.132 2.075-1.402-1.04-3.068-1.93-3.696-3.76-.27-.814-1.003-1.385-1.858-1.447-.946-.23-1.693-.952-1.953-1.89-.71-1.897.11-3.054 2.15-3.087zm21.887 32.762c-1.577.07-3.09-.134-2.82-2.494.082-.418-.014-.852-.264-1.197-.25-.345-.633-.57-1.056-.623-1.07-.447-2.054-1.075-2.91-1.856-.845-.524-1.132-1.618-.653-2.49.14-.41.44-.743.83-.926.392-.182.84-.197 1.243-.04 2.343.58 4.795.562 7.13-.053.894-.192 2.208-.325 2.73.97.444.885.183 1.962-.617 2.545-1.227.984-.632 2.313-.667 3.53-.067 2.274-.6 2.76-2.946 2.634zM85.835 201.896c-1.945-.005-3.428-1.09-3.44-2.92-.014-1.893-.004-3.04-2.502-3.53-1.16-.263-2.064-1.17-2.324-2.33-.27-1.16.16-2.366 1.1-3.1 1.62-1.24 5.47.202 5.84 2.215.11.62 0 1.28.09 1.9 0 .43.18.83.5 1.1s.75.39 1.16.31c2.02.01 3.38 1.33 3.31 2.85-.09 2.01-1.76 3.58-3.77 3.53l.01-.01zm-4.27 70.864c.613.07 1.27.418 1.826-.048 2.16-1.802 3.84.43 5.74.717.9.13 1.38 1.41 1.07 2.37-.39 1.25-.71 2.72-2.34 3.08-1.74.38-3.48.75-5.23 1.08-1.8.34-2.62-.9-3.45-2.18-.86-1.25-.91-2.89-.13-4.18.55-1.01 1.57-.91 2.53-.85l-.01.01zm25.93 110.538c.19 1.405-.588 2.763-1.896 3.31-1.22.65-1.94-.143-2.73-.866-2.88-2.393-4.38-6.054-4.01-9.775.08-.94.25-2.03 1.38-2.235 1.01-.184 1.33.762 1.75 1.504.71 1.503 1.93 2.71 3.44 3.41 1.89.835 1.54 3.238 2.06 4.652zM85.158 418.85c.657.056 1.19.554 1.293 1.206.23 1.485 1.29 2.706 2.73 3.128 1.32.51 2.27 1.618 1.4 3.278-.27.57-.38 1.21-.31 1.84.15 1.878-.93 2.776-2.61 2.842-2.26.088-3.46-.954-3.38-2.945.04-1.49-.35-2.95-1.12-4.21-1.07-1.88.21-3.2.96-4.65.22-.39.65-.59 1.07-.5l-.03.01zm-4.695-27.06c-2.417.124-5.05-3.194-4.295-5.468.05-.432.304-.815.683-1.028.38-.214.84-.233 1.24-.052.78.306 1.49.84 2.22 1.144 2.46 1.018 3.67 4.42 7.17 3.565.83-.2 2.04.85 2.1 2.03.05 1.2-.68 2.29-1.8 2.7-2.68 1.29-3.32 1.04-4.21-1.75-.4-1.26-.4-1.26-3.1-1.13v-.01zM77.353 270c.145.798.546 2.272-1.455 2.968-1.53.572-3.257.06-4.227-1.256-1.31-1.44-1.85-5.597-.97-7.396.54-1.093 1.24-2.916 2.38-2.274 1.42.8 3.95.846 3.89 3.513-.02 1.254.21 2.513.39 4.445zm35.435 148.425c.826.176 1.37.966 1.24 1.8 0 1.465.153 2.927.457 4.36.206.927.24 1.808 1.203 2.408 1.304.813 1.24 2.15.76 3.37-.492.968-1.494 1.57-2.58 1.55-1.31.214-2.59-.533-3.046-1.78-1.088-3.657-.786-7.587.85-11.034.185-.45.636-.72 1.116-.68zM91.58 334.82c-1.398.073-2.905-1.497-3.01-3.466.048-1.04-.216-2.07-.757-2.96-.398-.44-.594-1.025-.54-1.616.05-.59.348-1.132.817-1.494.906-.794 1.89-1.446 3.13-.95 1.147.385 1.863 1.525 1.712 2.725-.145 1.45.19 2.92.953 4.17.913 1.48-.55 3.49-2.305 3.58v.01zm-2.178-48.905c.387-.04.773.088 1.06.35.29.26.454.63.454 1.02.28 1.657.534 3.17 2.313 4.187 1.3.746.52 3.128-1.25 4.125-1.03.632-2.34.535-3.25-.24-1.04-.772-2.35-1.52-1.9-2.953.4-1.52.66-3.076.77-4.646.08-.96.83-1.73 1.79-1.843h.01zm-8.076 5.135c-1.646.757-1.095 3.403-3.286 3.705-1.677.23-2.388-.867-3.1-2.12-.497-.667-1.06-1.283-1.677-1.84-.815-.893-.854-2.248-.09-3.186.58-.92 1.71-1.31 2.733-.96 2.233.4 3.467 2.18 5.068 3.45.184.28.304.6.352.94v.01zm-5.46-110.893c2.52-.03 4.14 1.388 4.222 3.685.007.905-.365 1.772-1.026 2.39-.662.618-1.55.932-2.454.864-2.236 0-4.49-1.76-4.55-3.554-.06-1.763 1.737-3.36 3.808-3.385zm21.19 108.54c-2.67-.12-4.256-1.45-4.19-3.515.053-1.678 2.364-3.593 4.206-3.485 2.262.132 3.596 1.785 3.418 4.237-.134 1.86-1.37 2.854-3.433 2.762zm-.296 58.163c-2.15.068-3.997-1.343-4.048-3.09.136-1.85 1.684-3.28 3.54-3.268 2.068-.11 3.743 1.206 3.724 2.923.09.897-.213 1.79-.83 2.447-.614.658-1.484 1.018-2.385.988zm12.708 113.015c.254-1.323.496-2.452.68-3.59.002-.374.18-.725.478-.95.3-.223.686-.293 1.045-.19.82.088 1.53.302 1.5 1.244-.01 1.26.4 2.5 1.15 3.52.93 1.36 1.27 2.73-.48 3.74-.77.36-1.66.37-2.44.02s-1.37-1.01-1.62-1.83c-.17-.65-.27-1.32-.29-1.99l-.01.01zm-8.423-95.365c-.792.075-1.58-.18-2.178-.705-.598-.524-.953-1.272-.982-2.067.148-1.796 1.438-3.292 3.193-3.702 1.85-.05 3.46 1.262 3.78 3.085.124 1.64-1.794 3.34-3.813 3.39zm12.498-7.007c-.102 1.735-1.526 3.096-3.263 3.12-1.752-.084-3.814-1.956-3.846-3.49-.03-1.4 1.874-3.084 3.414-3.02 2.192.088 3.694 1.467 3.695 3.39zm1.5 93.13c-1.967.006-3.443-1.64-3.62-3.97-.116-1.543.92-2.104 2.104-2.275 1.785-.258 4.907 2.01 4.952 3.427.05 1.737-1.26 2.81-3.44 2.817zM79.176 342.21c-1.28.096-2.79.05-3.408-1.93-.398-.994-.05-2.132.838-2.732.836-.708 1.533-1.507 2.64-.488.383.366.9.555 1.43.522 1.767-.092 2.907.527 2.618 2.51-.26 1.788-1.418 2.435-3.148 2.188-.206-.03-.416-.032-.97-.07zM67.838 154.552c-.173-1.066.407-2.112 1.403-2.53.97-.39 1.58.23 2.06.977.26.46.66.81 1.15 1.01 1.36.44 2.16 1.84 1.85 3.24-.1 1.12-1.26 1.23-2.17 1.47-1.36.38-2.81-.22-3.51-1.45-.46-.84-.72-1.78-.77-2.73l-.01.01zm25.045 55.298c-.05 1.944-.957 2.613-3.44 2.545-2.127-.058-3.33-1.003-3.31-2.596.022-1.71 2.054-3.27 4.063-3.13 1.76.12 2.738 1.28 2.687 3.18zm5.67 217.535c.117-2.34.944-2.934 3.108-2.245.5.16 1.03.253 1.51.446 1.24.493 2.79.763 2.84 2.466.04 1.07-3.21 2.57-4.54 2.26-1.59-.372-3.17-.724-2.91-2.927zm-15.16-99.725c-.214 1.764-2.124 3.402-3.708 3.18-1.444-.38-2.45-1.687-2.447-3.18.205-1.908 1.582-3.278 3.145-3.13 2.332.22 3.246 1.172 3.01 3.13zm18.917 70.647c-1.982.703-2.548-.333-2.61-1.792.03-1.895.307-3.778.828-5.6.207-.928 1.134-1.32 1.558-.456.852 1.73 2.398 3.07 2.443 5.32.03 2.01.04 3.26-2.22 2.52zM105.23 444c-1.86.077-3.882-1.552-3.983-3.206-.095-1.548 1.092-2.61 3.12-2.79 1.746-.073 3.253 1.214 3.454 2.95.05 1.53-1.07 2.847-2.59 3.046zm-7.055-13.39c0 1.513-1.293 3.153-2.468 3.133-2.45-.04-3.943-1.012-3.976-2.585.18-1.835 1.72-3.235 3.56-3.234 1.53-.016 2.8 1.165 2.89 2.686zm-.61 15.118c2.085.08 3.525.424 3.724 2.327.13 1.32-1.61 2.915-3.1 2.962-1.97.062-3.93-1.468-3.82-2.98.08-1.167 1.89-2.298 3.18-2.31h.01zm4.505-90.365c-1.184-.2-2.97.06-3.158-2.015-.12-1.33 2.26-3.222 3.72-3.16 1.515.113 2.702 1.35 2.75 2.87-.07 1.482-1.32 2.423-3.313 2.305zm-15.006-1.183c-1.333-.28-3.012-.086-3.01-2.28 0-2.095 1.24-2.975 4.138-3.01 1.886-.02 1.862 1.425 2.006 2.56.197 1.557-1.275 2.748-3.134 2.73zm24.16 38.19c.987.324 2.34.05 2.115 1.487-.19 1.18 1.69 2.243.15 3.395-.97.736-2.34.615-3.16-.278-1.08-.928-2.75-1.183-3.23-2.808-.19-.635-.41-1.405.61-1.212 1.32.25 2.44-.455 3.5-.584h.01zm-16.9-26.017c-.13 1.204-.204 2.738-2.35 2.704-1.572-.22-2.798-1.474-2.987-3.05.008-1.327 1.507-3.085 2.675-3.137 1.676-.074 2.628 1.063 2.663 3.483zM78.77 411.545c-1.605.064-2.965-1.17-3.058-2.773.012-1.126 1.77-3.125 2.548-2.706 1.187.64 3.048.775 3.252 2.443.07.77-.188 1.53-.71 2.11-.52.57-1.256.9-2.032.91zm-10.35-283.49c.006-.51.22-.994.592-1.34.372-.35.87-.53 1.378-.5 1.11-.02 3.153 2.885 3.136 4.38-.018 1.63-1.05 1.83-2.383 1.713-2.074-.184-2.915-1.286-2.722-4.253zm37.77 243.908c-.054.797-.32 1.537-1.238 1.507-.995-.018-1.814-.788-1.895-1.78-.136-1.048.79-1.027 1.53-1.085.985-.077 1.68.177 1.602 1.358zM85.043 59.705c-1.497.457-3.104-.25-3.778-1.663-.365-.54-.484-1.212-.326-1.846.15-.634.57-1.17 1.15-1.478 2.11-1.478 3.88-3.404 5.17-5.642 1.25-2.077 2.94-1.755 4.31.302 2.5 3.734 2.26 4.63-1.9 6.402-.73.18-1.28.772-1.4 1.508-.23 2.3-1.81 2.538-3.23 2.417h-.01zm31.932 35.855c-.255.962.11 1.98.92 2.56 1.932 1.845 2.113 3.203.89 4.226-1.792 1.218-4.21.916-5.648-.705-.222-.22-.395-.49-.505-.79-.747-3.03-1.755-5.99-3.012-8.86-.165-.67.058-1.37.578-1.83.52-.45 1.25-.58 1.892-.33 1.667.85 3.22 1.9 4.628 3.12.61.51.507 1.56.26 2.62l-.003-.01zM100.6 59.085c1.754-.452 2.168.805 2.572 1.85.435 1.51 1.176 2.915 2.175 4.128 1.36 1.438.574 3.266-.116 4.74-.68 1.473-2.32 1.314-3.67 1.154-1.6-.19-2.28-1.482-2.51-2.887-.24-1.465-.39-2.796-1.7-3.877-.94-.78-.77-2.083-.24-3.24.59-1.37 2.05-2.15 3.51-1.868h-.02zm43.76 142.94c1.636-2.294-1.015-4.6-.748-7.187.08-.774-.73-1.915.186-2.284 1.152-.58 2.532-.458 3.566.312 1.43 1.227 2.158 3.082 1.944 4.954-.165 1.198.068 2.417.663 3.47.66 1.15 1.37 2.69.07 3.742-.87.702-1.92 1.75-3.38 1.126-1.65-.71-2.4-1.967-2.29-4.134h-.01zm-50.862-95.57c.824.295 1.737-.077 2.12-.864.7-.8 1.655-1.34 2.707-1.53.814-.25 1.835-1.21 2.607-.23.823 1.05 1.67 2.28 1.06 3.77-.475 1.17-.984 2.68-2.53 2.39-1.82-.33-2.56.61-3.593 1.77-1.61 1.8-4.62 1.59-5.71-.26-.73-.94-.9-2.21-.43-3.31.57-1.12 1.89-1.73 3.76-1.73zm72.372 118.22c-.483 1.38.2 1.752 1.485 2.053 2.207.518 3.424 2.5 2.77 4.09-1.014 1.618-2.972 2.375-4.81 1.86-2.47-1.14-3.003-2.675-1.722-4.958.87-1.55.612-2.115-1.088-1.957-.742.07-1.392.393-2.008-.264-.84-.9-2.235-1.65-1.556-3.13.71-1.53 2.22-1.76 3.78-1.66 1.46.08 2.77.38 3.13 2.05.08.63.08 1.26.02 1.9v.01zM108.67 86.25c-1.723.033-2.737-.835-3.897-1.3-.294-.135-.515-.39-.604-.702-.09-.31-.04-.645.14-.915.52-1.16 1.1-2.554 2.38-2.76 1.55-.246 2.34-1.212 3.26-2.202.72-.93 1.87-1.43 3.05-1.34 1.54.17 2.91.55 3.51 2.19.43 1.37-.14 2.86-1.36 3.59-1.92 1.2-3.99 2.21-5.96 3.35-.17.1-.36.14-.54.1l.02-.01zm32.306 61.48c.23 1.866-.796 3.028-2.74 3.336-1.212.192-2.118.455-2.615 1.803-.21.54-.64.98-1.18 1.22-.54.23-1.15.24-1.7.02-1.28-.48-2.94-.73-3.18-2.64-.29-1.3.42-2.61 1.66-3.07 1.42-.69 2.72-1.61 3.82-2.72 1.18-1.15 2.97-1.4 4.41-.61 1.11.36 1.78 1.48 1.55 2.63l-.02.02zm-6.72 20.878c-.3 1.33-1.274 2.403-2.567 2.832-1.43.626-3.09.153-3.97-1.128-1.15-1.5-2.12-3.13-2.87-4.862-.54-1.187.41-2.237 1.16-3.075 1.06-1.186 2.49-1.007 3.83-.547 1.25.43 4.45 5.382 4.41 6.78zm52.44 81.378c1.81.557 3.582 1.232 5.304 2.02.8.433 1.38 1.184 1.596 2.067.217.883.05 1.816-.456 2.57-.57.85-1.498 1.396-2.518 1.482-1.02.085-2.025-.298-2.73-1.04-.9-.9-1.523-1.64-3.106-1.614-1.41.03-1.655-1.81-1.496-3.05.214-1.67 1.344-2.57 3.407-2.43zM96.23 81.282c-.206 1.204.03 2.66-1.564 3.133-1.514.555-3.21.218-4.397-.874-.79-.81-1.61-1.59-2.43-2.38-.83-.62-1.23-1.66-1.05-2.68.18-1.02.92-1.85 1.91-2.15 2.41-1.03 7.53 2.35 7.51 4.96h.01zm86.662 203.502c-1.5-.22-2.834-1.068-3.667-2.334-1.05-1.298.04-2.325.7-3.38 2.117-3.38 2.987-3.797 5.547-2.59.3.093.577.248.813.455 1.62 2.027-.166 4.014-.198 6.03-.022 1.45-1.632 1.693-3.195 1.82zM109.215 127.54c.048 2.31-.188 3.705-2.24 4.176-1.638.375-2.892.177-3.834-1.252-1-1.518-.99-2.888.51-4.148 1.18-.988 1.56-2.787 3.29-3.245.85-.22 1.86-.55 1.81.79 0 1.25.16 2.49.47 3.69v-.01zm6.68-14.056c.15 1.3-.666 2.52-1.926 2.876-1.38.616-3 .26-3.98-.876-.49-.43-.78-1.038-.8-1.686-.02-.647.22-1.275.67-1.737 1.01-1.22 1.41-2.84 2.65-3.9 1.35-1.14 1.93-.99 2.34.71.36 1.54.69 3.08 1.03 4.62zm61.31 140.063c.05 1.303-.71 2.526-.93 3.876-.056.314-.24.59-.508.764-.268.173-.596.227-.905.15-2.507-.07-2.91-2.51-4.192-3.87-.917-.973.035-2.45.793-3.44 1.248-1.63 2.943-.66 4.416-.418 1.61.26 1.15 1.74 1.32 2.93zM90.323 32.987c1.48-.045 2.92-.487 4.17-1.28 1.814-1.21 2.2-.204 2.367 1.28.385 3.44-.39 5.836-3.303 5.984-2.467.13-3.87-.87-3.704-3.29.124-.93.31-1.86.56-2.78l-.09.09zm55.073 179.003c1.66-.107 6.76 3.14 7.156 4.532.346 1.216.527 2.39-1.28 2.922-3.896 1.145-3.874 1.23-5.36-2.636-.412-1.074-.836-2.144-1.194-3.236-.157-.296-.172-.647-.04-.954.133-.308.397-.54.72-.63l-.002.002zm31.553 22.402c-.08-1.054.3-2.09 1.04-2.846.73-.757 1.76-1.165 2.81-1.12 1.85.04 3.42 1.974 3.37 4.14-.04 1.47-1.75 2.985-3.46 3.048-2.25.084-3.76-1.2-3.79-3.222h.02zm20.02 43.755c-2.33-.076-3.53-1.206-3.44-3.21.09-1.93 1.95-3.9 3.55-3.782 2.34.172 3.92 1.537 3.86 3.337-.25 2.038-1.94 3.593-3.99 3.655h.02zm16.29 35.276c-.06 1.058-2.83 4.968-3.46 4.89-1.32-.16-3.68-3.093-3.61-4.48.04-1.84 1.51-3.327 3.35-3.398 2.5.195 3.81 1.252 3.71 2.988h.01zM106.6 59.715c-1.857-.04-3.423-1.397-3.723-3.23-.07-1.538 1.93-3.303 3.86-3.406 1.94-.11 3.41 1.37 3.56 3.59.14 2.04-.96 2.94-3.7 3.04h.003zm-7.87-12.52c-.045.844-.432 1.632-1.072 2.184-.64.55-1.477.81-2.318.73-1.41-.03-3.633-2.07-3.682-3.39.18-1.92 1.712-3.42 3.63-3.57 2.074.08 3.47 1.71 3.447 4.04h-.005zm93.18 251.255c-.15-1.593.892-2.514 3.084-2.73 2.122-.206 3.733.89 3.94 2.682.12 1.862-1.21 3.503-3.057 3.773-2.085-.033-3.803-1.646-3.966-3.725zM98.113 97.465c-.037 1.205-2.68 3.38-4.245 3.492-.838.06-3.243-2.573-3.24-3.546.006-1.47 1.935-3.5 3.23-3.4 2.292.19 4.306 1.82 4.255 3.46zm19.047 44.395c2.35.287 3.812 1.566 3.634 3.18-.203 1.853-2.085 3.457-3.712 3.163-1.782-.32-3.944-2.456-3.758-3.71.21-1.416 2.26-2.823 3.835-2.632zm37.975 98.09c-.02-1.648.25-3.213 1.84-4.082 1.46-.798 2.973-1.12 4.305.33 1.19 1.297 1.382 3.554.194 4.593-1.252 1.1-2.69 1.62-4.257.36-.688-.48-1.41-.91-2.162-1.29l.08.09zm17.54 4.094c-1.963.112-3.693-1.28-4.005-3.22-.046-1.76 1.325-3.233 3.083-3.312 1.55-.1 3.96 1.632 4.05 2.913.005 1.817-1.33 3.36-3.127 3.62zm-10.628-42.136c.05 1.662-2.23 4.576-3.617 4.84-.202.026-.407-.005-.593-.088-1.872-.774-2.66-5.478-1.28-6.935 1.276-1.346 1.994.76 3.05.33 2.175-.884 2.155.78 2.44 1.853zm-16.217-12.503c-2.084.023-3.348-1.047-3.42-2.897-.08-1.98 1.512-3.436 3.73-3.416 1.22-.076 2.373.552 2.97 1.617.598 1.06.534 2.37-.165 3.37-.7 1-1.91 1.51-3.115 1.32zm-17.598-54.332c.002 1.492-2.047 3.423-3.602 3.397-1.657-.07-2.997-1.375-3.108-3.03.055-1.863 1.48-3.397 3.334-3.59 1.752.127 3.168 1.48 3.376 3.224zm-6.732-15.358c-.025-1.747 1.358-3.19 3.104-3.24 2.003-.012 3.77 1.175 3.778 2.54.01 1.536-2.59 3.72-4.48 3.76-1.396.03-2.347-1.18-2.403-3.06zm66.347 148.93c-2.128-.068-3.547-1.202-3.505-2.798.05-1.87 1.41-3.465 2.963-3.476 2.115-.01 3.558 1.55 3.573 3.86.01 1.53-1.176 2.48-3.03 2.42zM102.002 87.44c2.217-.033 4.023 1.24 4.138 2.803.122 1.662-1.567 3.292-3.47 3.35-.89-.03-1.732-.42-2.332-1.08-.6-.66-.906-1.536-.85-2.426.115-1.584.612-2.95 2.514-2.646zm112.52 235.735c.85-.04 1.68.28 2.28.885.6.604.915 1.435.868 2.285.023 1.147-2.128 2.927-3.536 2.928-1.548 0-3.42-1.712-3.385-3.098.04-1.656 1.81-3.07 3.77-3zm-79.704-140.01c-1.696-.2-3.05-1.508-3.31-3.196-.008-.7 2.81-3.53 3.535-3.56.817-.03 2.834 2.68 2.867 3.84-.1 1.63-1.456 2.9-3.092 2.9v.01zm86.614 154.573c.803.013 1.567.35 2.118.935.55.585.842 1.367.807 2.17.033 1.105-1.924 3.092-3.088 3.135-1.75-.182-3.08-1.655-3.07-3.41.13-1.657 1.56-2.908 3.22-2.83h.01zM142.99 162.19c2.013.072 3.11 1.204 2.99 3.09-.117 1.834-1.262 3.098-2.81 3.096-1.8-.255-3.193-1.703-3.38-3.51.05-.787.42-1.52 1.026-2.024.605-.506 1.39-.742 2.174-.653zm36.76 96.077c2.2-.015 4.166 1.42 4.135 3.02-.025 1.32-2.045 2.983-3.597 2.872-.748.03-1.48-.24-2.027-.75-.54-.51-.86-1.22-.88-1.97-.13-1.56 1.11-3.18 2.38-3.19zm-26.276-45.827c-2.635.005-3.757-.897-3.623-2.81.13-1.858 1.56-2.426 3.09-2.58.86-.103 1.72.173 2.35.755.64.582.99 1.412.96 2.272.04.708-.26 1.39-.79 1.853-.53.462-1.25.65-1.95.51h-.01zm47.14 73.384c.033 1.526-1.844 3.095-3.814 2.82-1.13-.157-2.585-.53-2.62-2.206-.025-1.29 1.734-3.383 2.786-3.408 1.824-.043 3.615 1.33 3.647 2.794zm-30.694-70.402c.03 1.55-1.2 2.83-2.75 2.86-1.423-.07-2.913-1.895-2.98-3.57-.07-1.8 1.136-1.677 2.343-1.652 2.32.05 3.386.775 3.387 2.362zM73.37 31.454c-1.58-.586-3.926.133-5.04-2.152-.476-.978-1.132-1.947.835-2.123 1.967-.18 2.79-1.19 1.897-3.27-1.386-3.22.768-5.38 3.335-7.37.868-.67 1.36-.48 2.05.73 1.2 2.11 1.832 3.97.254 6.04-.94 1.23.25 2.18.35 3.27.1.97 1.85 1.39.95 2.71-.88 1.21-2.25 1.97-3.75 2.09-.21.03-.42.02-.87.05l-.01.02zm-13.748-9.13c.1 1.815-.6 2.982-2.38 3.217-.802.05-1.587-.23-2.177-.78-.59-.54-.936-1.3-.958-2.1-.002-1.18 1.685-2.52 3.17-2.44 1.355.08 2.59.38 2.345 2.12zm-21.128-.81c1.49-.235 2.392.204 2.37 2.172-.027 2.257-1.57 2.223-3.02 2.31-.646.078-1.295-.125-1.78-.56-.486-.432-.76-1.053-.757-1.704-.152-1.477 1.042-2.3 3.187-2.218zm207.54 21.356c.537 1.842-1.02 2.5-2.083 3.45-.64.623-1.66.62-2.3-.006-1.11-.904-1.84-2.014-1.33-3.575.56-1.7 1.02-3.42 1.63-5.1.25-.68 1.06-1.63 1.59-1.22 1.84 1.41 2.58.04 3.76-.95 1.35-1.19 3.39-1.11 4.63.19 1.17 1.02 1.42 2.74.58 4.06-.82 1.43-2.57 2.04-4.11 1.45-2.54-.76-2.55-.7-2.33 1.68l-.03.02zm11.173-13.082c-1.828-.053-3.658-1.726-3.58-3.274.198-1.833 1.74-3.226 3.584-3.237 1.82.117 3.57 1.825 3.48 3.386-.07 1.256-2.19 3.162-3.48 3.125zm-36.747-6.733c-1.47-.2-2.652-1.31-2.944-2.763-.022-1.5 2.013-3.34 3.685-3.192 1.45.073 2.57 1.28 2.54 2.724.13 1.515-1.68 3.23-3.27 3.23h-.01zm23.684-3.245c1.517.067 2.748 1.252 2.873 2.765.055 1.132-2.02 3.07-3.267 2.734-1.324-.36-2.903-.79-2.996-2.66-.08-1.62 1.334-2.79 3.39-2.84zm4.226 463.206c1.562-.134 2.96.97 3.19 2.52.383 1.846.85 2.39 2.214.706.81-1 1.742-2.22 3.11-1.63 1.453.625 3.066 1.304 3.018 3.55-.033 1.498 1.11 2.672 2.2 3.723.92.87 1.79 1.794 2.6 2.768.58.672.61 1.658.07 2.363-.465.602-1.242.87-1.98.685-1.79-.29-3.39-1.28-4.463-2.75-1.17-1.49-2.9-2.44-4.79-2.62-3.06-.31-3.33-.65-3.51-3.97-.08-1.47-.85-1.51-1.88-1.35-1.46.23-2.22-.22-2.16-1.82.07-1.68.57-2.2 2.35-2.16l.03-.01zm24.525 1.366c-.093-2.99 1.566-4.63 4.522-4.507.846.044 1.657-.343 2.157-1.027 1.36-1.572 2.945-.688 4.366-.25 1.05.324 1.06 1.507.956 2.445-.14 1.245-.902 2.524-2.112 2.344-2.558-.38-4.093 1.113-5.7 2.514-.884.79-2.148.98-3.222.48-.923-.32-.835-1.35-.967-1.99zm1.748 12.148c.047-2.177 1.458-4.09 3.524-4.778 1.592-.605 2.615.3 3.627 1.257.32.27.573.62.737 1.01.46 1.31-3.19 5.91-4.66 5.93-2.58.04-3.35-.77-3.22-3.43v.01zm14.695 1.782c.025-1.17.86-2.088 2.422-2.356 1.822-.313 5.4 3.425 5.033 5.258-.16.738-.7 1.336-1.418 1.572-1.98.795-5.974-1.89-6.037-4.474zm-20.112-4.527c-2.46.042-3.63-.914-3.615-2.943.01-1.46.59-2.494 2.16-2.588 2.36-.14 4.12 1.125 4.19 2.91.07 1.788-.76 2.588-2.73 2.62zM63.434 482.55c1.737.143 3.84-2.15 3.664-3.982-.01-.204-.1-.395-.254-.53-.142-.062-.303-.063-.446-.003-.142.06-.254.176-.31.32-.326.62-.89 1.083-1.56 1.282-.673.2-1.397.12-2.01-.22-1.344-.55-2.066-2.017-1.678-3.417.3-1.412 1.664-2.335 3.087-2.09 1.28.042 2.475.642 3.275 1.64.36.71 1.19 1.05 1.945.794 2.7-.472 3.925 1.212 3.26 3.925-.495 2.03-.863 4.11-1.444 6.12-.665 2.3-1.53 2.71-3.974 2.47-2.09-.22-3.93-1.39-6.09-1.38-1.02-.02-1.86-.78-1.98-1.78-.16-1.32.77-2.15 1.73-2.81.85-.42 1.82-.55 2.76-.36l.02.02zm26.654 5.11c-.277 1.492-.11 2.724-1.56 2.94-1.458.218-2.976 1.597-4.355-.122-.455-.567-.745-1.517-1.6-1.297-2.92.76-3.044-1.56-3.554-3.24-.74-2.42 1.4-3.19 2.79-4.41 1.53-1.35 3.74-1.26 4.63-.26 1.68 1.89 2.59 4.46 3.64 6.41v-.02zm-43.308 6.17c-.73.135-1.483-.036-2.082-.473-.6-.437-.993-1.1-1.088-1.837-.295-1.22 1.596-3.738 2.857-4.055.41-.1.828-.16 1.25-.177 2.192-.097 3.68-.74 3.197-3.43-.106-.536.015-1.09.336-1.533.32-.443.81-.73 1.352-.797 1.358-.085 2.96-.4 4.095.805.836.89.582 1.95.192 2.975-.11.533-.49.97-1 1.14-3.15.42-3.97 2.995-4.91 5.36-.75 1.868-2.18 2.047-4.21 2.02l.01.002zm22.36-24.168c2.65-.02 4.327 1.208 4.14 2.898-.224 2.01-2.033 1.91-3.382 2.126-1.47.236-3.092-1.51-2.994-2.983-.04-.59.19-1.164.625-1.56.43-.4 1.03-.575 1.61-.48z"/></g></svg>
